<?plantuml 1.2026.2?><svg xmlns="http://www.w3.org/2000/svg" xmlns:xlink="http://www.w3.org/1999/xlink" contentStyleType="text/css" data-diagram-type="CLASS" height="655px" preserveAspectRatio="none" style="width:4426px;height:655px;background:#FFFFFF;" version="1.1" viewBox="0 0 4426 655" width="4426px" zoomAndPan="magnify"><title>Extension Modules &#8212; Football and Chess
No Contest / Result / Stats subclasses; strategies only</title><defs/><g><g class="title" data-source-line="17"><text fill="#000000" font-family="sans-serif" font-size="14" font-weight="bold" lengthAdjust="spacing" textLength="322.3965" x="2045.1709" y="26.9951">Extension Modules &#8212; Football and Chess</text><text fill="#000000" font-family="sans-serif" font-size="14" font-weight="bold" lengthAdjust="spacing" textLength="427.6221" x="1992.5581" y="43.292">No Contest / Result / Stats subclasses; strategies only</text></g><!--cluster Core Interfaces (reference)--><g class="cluster" data-qualified-name="Core Interfaces .reference." data-source-line="20" id="ent0002"><path d="M2161.5,541.5938 L2385.415,541.5938 A3.75,3.75 0 0 1 2387.915,544.0938 L2394.915,571.8906 L3246.5,571.8906 A2.5,2.5 0 0 1 3249,574.3906 L3249,646.0938 A2.5,2.5 0 0 1 3246.5,648.5938 L2161.5,648.5938 A2.5,2.5 0 0 1 2159,646.0938 L2159,544.0938 A2.5,2.5 0 0 1 2161.5,541.5938" fill="#F8F8F8" style="stroke:#000000;stroke-width:1.5;"/><line style="stroke:#000000;stroke-width:1.5;" x1="2159" x2="2394.915" y1="571.8906" y2="571.8906"/><text fill="#000000" font-family="sans-serif" font-size="14" font-weight="bold" lengthAdjust="spacing" textLength="214.915" x="2167" y="560.5889">Core Interfaces (reference)</text></g><!--cluster Football Module--><g class="cluster" data-qualified-name="Football Module" data-source-line="31" id="ent0010"><path d="M1934.5,132.5938 L2070.7646,132.5938 A3.75,3.75 0 0 1 2073.2646,135.0938 L2080.2646,162.8906 L3995.5,162.8906 A2.5,2.5 0 0 1 3998,165.3906 L3998,515.0938 A2.5,2.5 0 0 1 3995.5,517.5938 L1934.5,517.5938 A2.5,2.5 0 0 1 1932,515.0938 L1932,135.0938 A2.5,2.5 0 0 1 1934.5,132.5938" fill="#E8F5E9" style="stroke:#000000;stroke-width:1.5;"/><line style="stroke:#000000;stroke-width:1.5;" x1="1932" x2="2080.2646" y1="162.8906" y2="162.8906"/><text fill="#000000" font-family="sans-serif" font-size="14" font-weight="bold" lengthAdjust="spacing" textLength="127.2646" x="1940" y="151.5889">Football Module</text></g><!--cluster Chess Module--><g class="cluster" data-qualified-name="Chess Module" data-source-line="99" id="ent0020"><path d="M8.5,144.5938 L126.6084,144.5938 A3.75,3.75 0 0 1 129.1084,147.0938 L136.1084,174.8906 L1905.5,174.8906 A2.5,2.5 0 0 1 1908,177.3906 L1908,503.0938 A2.5,2.5 0 0 1 1905.5,505.5938 L8.5,505.5938 A2.5,2.5 0 0 1 6,503.0938 L6,147.0938 A2.5,2.5 0 0 1 8.5,144.5938" fill="#FFF3E0" style="stroke:#000000;stroke-width:1.5;"/><line style="stroke:#000000;stroke-width:1.5;" x1="6" x2="136.1084" y1="174.8906" y2="174.8906"/><text fill="#000000" font-family="sans-serif" font-size="14" font-weight="bold" lengthAdjust="spacing" textLength="109.1084" x="14" y="163.5889">Chess Module</text></g><!--class TerminationRule--><g class="entity" data-qualified-name="Core Interfaces .reference..TerminationRule" data-source-line="21" id="ent0003"><rect fill="#FFFFFF" height="48" rx="2.5" ry="2.5" style="stroke:#444444;stroke-width:1;" width="139.2754" x="2566.5" y="584.5938"/><ellipse cx="2581.5" cy="600.5938" fill="#B4A7E5" rx="11" ry="11" style="stroke:#181818;stroke-width:1;"/><path d="M2577.4219,596.3594 L2577.4219,594.2031 L2584.8125,594.2031 L2584.8125,596.3594 L2582.3438,596.3594 L2582.3438,604.4375 L2584.8125,604.4375 L2584.8125,606.5938 L2577.4219,606.5938 L2577.4219,604.4375 L2579.8906,604.4375 L2579.8906,596.3594 L2577.4219,596.3594 Z " fill="#000000"/><text fill="#000000" font-family="sans-serif" font-size="12" font-style="italic" lengthAdjust="spacing" textLength="99.2754" x="2599.5" y="604.748">TerminationRule</text><line style="stroke:#444444;stroke-width:1;" x1="2567.5" x2="2704.7754" y1="616.5938" y2="616.5938"/><line style="stroke:#444444;stroke-width:1;" x1="2567.5" x2="2704.7754" y1="624.5938" y2="624.5938"/></g><!--class OutcomeRule--><g class="entity" data-qualified-name="Core Interfaces .reference..OutcomeRule" data-source-line="22" id="ent0004"><rect fill="#FFFFFF" height="48" rx="2.5" ry="2.5" style="stroke:#444444;stroke-width:1;" width="121.4277" x="2302.5" y="584.5938"/><ellipse cx="2317.5" cy="600.5938" fill="#B4A7E5" rx="11" ry="11" style="stroke:#181818;stroke-width:1;"/><path d="M2313.4219,596.3594 L2313.4219,594.2031 L2320.8125,594.2031 L2320.8125,596.3594 L2318.3438,596.3594 L2318.3438,604.4375 L2320.8125,604.4375 L2320.8125,606.5938 L2313.4219,606.5938 L2313.4219,604.4375 L2315.8906,604.4375 L2315.8906,596.3594 L2313.4219,596.3594 Z " fill="#000000"/><text fill="#000000" font-family="sans-serif" font-size="12" font-style="italic" lengthAdjust="spacing" textLength="81.4277" x="2335.5" y="604.748">OutcomeRule</text><line style="stroke:#444444;stroke-width:1;" x1="2303.5" x2="2422.9277" y1="616.5938" y2="616.5938"/><line style="stroke:#444444;stroke-width:1;" x1="2303.5" x2="2422.9277" y1="624.5938" y2="624.5938"/></g><!--class ScoringRule--><g class="entity" data-qualified-name="Core Interfaces .reference..ScoringRule" data-source-line="23" id="ent0005"><rect fill="#FFFFFF" height="48" rx="2.5" ry="2.5" style="stroke:#444444;stroke-width:1;" width="111.707" x="2741" y="584.5938"/><ellipse cx="2756" cy="600.5938" fill="#B4A7E5" rx="11" ry="11" style="stroke:#181818;stroke-width:1;"/><path d="M2751.9219,596.3594 L2751.9219,594.2031 L2759.3125,594.2031 L2759.3125,596.3594 L2756.8438,596.3594 L2756.8438,604.4375 L2759.3125,604.4375 L2759.3125,606.5938 L2751.9219,606.5938 L2751.9219,604.4375 L2754.3906,604.4375 L2754.3906,596.3594 L2751.9219,596.3594 Z " fill="#000000"/><text fill="#000000" font-family="sans-serif" font-size="12" font-style="italic" lengthAdjust="spacing" textLength="71.707" x="2774" y="604.748">ScoringRule</text><line style="stroke:#444444;stroke-width:1;" x1="2742" x2="2851.707" y1="616.5938" y2="616.5938"/><line style="stroke:#444444;stroke-width:1;" x1="2742" x2="2851.707" y1="624.5938" y2="624.5938"/></g><!--class FixtureGenerator--><g class="entity" data-qualified-name="Core Interfaces .reference..FixtureGenerator" data-source-line="24" id="ent0006"><rect fill="#FFFFFF" height="48" rx="2.5" ry="2.5" style="stroke:#444444;stroke-width:1;" width="142.9023" x="2888.5" y="584.5938"/><ellipse cx="2903.5" cy="600.5938" fill="#B4A7E5" rx="11" ry="11" style="stroke:#181818;stroke-width:1;"/><path d="M2899.4219,596.3594 L2899.4219,594.2031 L2906.8125,594.2031 L2906.8125,596.3594 L2904.3438,596.3594 L2904.3438,604.4375 L2906.8125,604.4375 L2906.8125,606.5938 L2899.4219,606.5938 L2899.4219,604.4375 L2901.8906,604.4375 L2901.8906,596.3594 L2899.4219,596.3594 Z " fill="#000000"/><text fill="#000000" font-family="sans-serif" font-size="12" font-style="italic" lengthAdjust="spacing" textLength="102.9023" x="2921.5" y="604.748">FixtureGenerator</text><line style="stroke:#444444;stroke-width:1;" x1="2889.5" x2="3030.4023" y1="616.5938" y2="616.5938"/><line style="stroke:#444444;stroke-width:1;" x1="2889.5" x2="3030.4023" y1="624.5938" y2="624.5938"/></g><!--class StandingsAggregator--><g class="entity" data-qualified-name="Core Interfaces .reference..StandingsAggregator" data-source-line="25" id="ent0007"><rect fill="#FFFFFF" height="48" rx="2.5" ry="2.5" style="stroke:#444444;stroke-width:1;" width="167.418" x="3066.5" y="584.5938"/><ellipse cx="3081.5" cy="600.5938" fill="#B4A7E5" rx="11" ry="11" style="stroke:#181818;stroke-width:1;"/><path d="M3077.4219,596.3594 L3077.4219,594.2031 L3084.8125,594.2031 L3084.8125,596.3594 L3082.3438,596.3594 L3082.3438,604.4375 L3084.8125,604.4375 L3084.8125,606.5938 L3077.4219,606.5938 L3077.4219,604.4375 L3079.8906,604.4375 L3079.8906,596.3594 L3077.4219,596.3594 Z " fill="#000000"/><text fill="#000000" font-family="sans-serif" font-size="12" font-style="italic" lengthAdjust="spacing" textLength="127.418" x="3099.5" y="604.748">StandingsAggregator</text><line style="stroke:#444444;stroke-width:1;" x1="3067.5" x2="3232.918" y1="616.5938" y2="616.5938"/><line style="stroke:#444444;stroke-width:1;" x1="3067.5" x2="3232.918" y1="624.5938" y2="624.5938"/></g><!--class Tiebreak--><g class="entity" data-qualified-name="Core Interfaces .reference..Tiebreak" data-source-line="26" id="ent0008"><rect fill="#FFFFFF" height="48" rx="2.5" ry="2.5" style="stroke:#444444;stroke-width:1;" width="92.2832" x="2175" y="584.5938"/><ellipse cx="2190" cy="600.5938" fill="#B4A7E5" rx="11" ry="11" style="stroke:#181818;stroke-width:1;"/><path d="M2185.9219,596.3594 L2185.9219,594.2031 L2193.3125,594.2031 L2193.3125,596.3594 L2190.8438,596.3594 L2190.8438,604.4375 L2193.3125,604.4375 L2193.3125,606.5938 L2185.9219,606.5938 L2185.9219,604.4375 L2188.3906,604.4375 L2188.3906,596.3594 L2185.9219,596.3594 Z " fill="#000000"/><text fill="#000000" font-family="sans-serif" font-size="12" font-style="italic" lengthAdjust="spacing" textLength="52.2832" x="2208" y="604.748">Tiebreak</text><line style="stroke:#444444;stroke-width:1;" x1="2176" x2="2266.2832" y1="616.5938" y2="616.5938"/><line style="stroke:#444444;stroke-width:1;" x1="2176" x2="2266.2832" y1="624.5938" y2="624.5938"/></g><!--class Sport--><g class="entity" data-qualified-name="Core Interfaces .reference..Sport" data-source-line="27" id="ent0009"><rect fill="#FFFFFF" height="48" rx="2.5" ry="2.5" style="stroke:#444444;stroke-width:1;" width="72.2148" x="2459" y="584.5938"/><ellipse cx="2474" cy="600.5938" fill="#ADD1B2" rx="11" ry="11" style="stroke:#181818;stroke-width:1;"/><path d="M2476.9688,606.2344 Q2476.3906,606.5313 2475.75,606.6719 Q2475.1094,606.8281 2474.4063,606.8281 Q2471.9063,606.8281 2470.5781,605.1875 Q2469.2656,603.5313 2469.2656,600.4063 Q2469.2656,597.2813 2470.5781,595.625 Q2471.9063,593.9688 2474.4063,593.9688 Q2475.1094,593.9688 2475.75,594.125 Q2476.4063,594.2813 2476.9688,594.5781 L2476.9688,597.2969 Q2476.3438,596.7188 2475.75,596.4531 Q2475.1563,596.1719 2474.5313,596.1719 Q2473.1875,596.1719 2472.5,597.25 Q2471.8125,598.3125 2471.8125,600.4063 Q2471.8125,602.5 2472.5,603.5781 Q2473.1875,604.6406 2474.5313,604.6406 Q2475.1563,604.6406 2475.75,604.375 Q2476.3438,604.0938 2476.9688,603.5156 L2476.9688,606.2344 Z " fill="#000000"/><text fill="#000000" font-family="sans-serif" font-size="12" lengthAdjust="spacing" textLength="32.2148" x="2492" y="604.748">Sport</text><line style="stroke:#444444;stroke-width:1;" x1="2460" x2="2530.2148" y1="616.5938" y2="616.5938"/><line style="stroke:#444444;stroke-width:1;" x1="2460" x2="2530.2148" y1="624.5938" y2="624.5938"/></g><!--class FootballSport--><g class="entity" data-qualified-name="Football Module.FootballSport" data-source-line="33" id="ent0011"><rect fill="#FFFFFF" height="120.8906" rx="2.5" ry="2.5" style="stroke:#444444;stroke-width:1;" width="312.0996" x="2518" y="187.5938"/><ellipse cx="2625.7275" cy="203.5938" fill="#ADD1B2" rx="11" ry="11" style="stroke:#181818;stroke-width:1;"/><path d="M2628.6963,209.2344 Q2628.1182,209.5313 2627.4775,209.6719 Q2626.8369,209.8281 2626.1338,209.8281 Q2623.6338,209.8281 2622.3057,208.1875 Q2620.9932,206.5313 2620.9932,203.4063 Q2620.9932,200.2813 2622.3057,198.625 Q2623.6338,196.9688 2626.1338,196.9688 Q2626.8369,196.9688 2627.4775,197.125 Q2628.1338,197.2813 2628.6963,197.5781 L2628.6963,200.2969 Q2628.0713,199.7188 2627.4775,199.4531 Q2626.8838,199.1719 2626.2588,199.1719 Q2624.915,199.1719 2624.2275,200.25 Q2623.54,201.3125 2623.54,203.4063 Q2623.54,205.5 2624.2275,206.5781 Q2624.915,207.6406 2626.2588,207.6406 Q2626.8838,207.6406 2627.4775,207.375 Q2628.0713,207.0938 2628.6963,206.5156 L2628.6963,209.2344 Z " fill="#000000"/><text fill="#000000" font-family="sans-serif" font-size="12" lengthAdjust="spacing" textLength="80.1445" x="2650.2275" y="207.748">FootballSport</text><line style="stroke:#444444;stroke-width:1;" x1="2519" x2="2829.0996" y1="219.5938" y2="219.5938"/><text fill="#000000" font-family="sans-serif" font-size="14" lengthAdjust="spacing" textLength="225.0254" x="2528" y="240.5889">+name = "Association Football"</text><text fill="#000000" font-family="sans-serif" font-size="14" lengthAdjust="spacing" textLength="235.0605" x="2528" y="264.8857">+allowedRoles = {HOME, AWAY}</text><text fill="#000000" font-family="sans-serif" font-size="14" lengthAdjust="spacing" textLength="292.0996" x="2528" y="289.1826">+defaultCapabilities = {EventRecording}</text><line style="stroke:#444444;stroke-width:1;" x1="2519" x2="2829.0996" y1="300.4844" y2="300.4844"/></g><!--class TimeLimit--><g class="entity" data-qualified-name="Football Module.TimeLimit" data-source-line="41" id="ent0012"><rect fill="#FFFFFF" height="145.1875" rx="2.5" ry="2.5" style="stroke:#444444;stroke-width:1;" width="230.0273" x="2865" y="175.5938"/><ellipse cx="2942.0215" cy="191.5938" fill="#ADD1B2" rx="11" ry="11" style="stroke:#181818;stroke-width:1;"/><path d="M2944.9902,197.2344 Q2944.4121,197.5313 2943.7715,197.6719 Q2943.1309,197.8281 2942.4277,197.8281 Q2939.9277,197.8281 2938.5996,196.1875 Q2937.2871,194.5313 2937.2871,191.4063 Q2937.2871,188.2813 2938.5996,186.625 Q2939.9277,184.9688 2942.4277,184.9688 Q2943.1309,184.9688 2943.7715,185.125 Q2944.4277,185.2813 2944.9902,185.5781 L2944.9902,188.2969 Q2944.3652,187.7188 2943.7715,187.4531 Q2943.1777,187.1719 2942.5527,187.1719 Q2941.209,187.1719 2940.5215,188.25 Q2939.834,189.3125 2939.834,191.4063 Q2939.834,193.5 2940.5215,194.5781 Q2941.209,195.6406 2942.5527,195.6406 Q2943.1777,195.6406 2943.7715,195.375 Q2944.3652,195.0938 2944.9902,194.5156 L2944.9902,197.2344 Z " fill="#000000"/><text fill="#000000" font-family="sans-serif" font-size="12" lengthAdjust="spacing" textLength="59.4844" x="2966.5215" y="195.748">TimeLimit</text><line style="stroke:#444444;stroke-width:1;" x1="2866" x2="3094.0273" y1="207.5938" y2="207.5938"/><text fill="#000000" font-family="sans-serif" font-size="14" lengthAdjust="spacing" textLength="187.5098" x="2875" y="228.5889">+regularMinutes : int = 90</text><text fill="#000000" font-family="sans-serif" font-size="14" lengthAdjust="spacing" textLength="143.4932" x="2875" y="252.8857">+stoppageTime : int</text><text fill="#000000" font-family="sans-serif" font-size="14" lengthAdjust="spacing" textLength="210.0273" x="2875" y="277.1826">+extraTimeEnabled : Boolean</text><line style="stroke:#444444;stroke-width:1;" x1="2866" x2="3094.0273" y1="288.4844" y2="288.4844"/><text fill="#000000" font-family="sans-serif" font-size="14" lengthAdjust="spacing" textLength="204.374" x="2875" y="309.4795">+isOver(c) : TerminationKind</text></g><!--class EventDerived--><g class="entity" data-qualified-name="Football Module.EventDerived" data-source-line="50" id="ent0013"><rect fill="#FFFFFF" height="72.2969" rx="2.5" ry="2.5" style="stroke:#444444;stroke-width:1;" width="186.168" x="2297" y="212.0938"/><ellipse cx="2341.1595" cy="228.0938" fill="#ADD1B2" rx="11" ry="11" style="stroke:#181818;stroke-width:1;"/><path d="M2344.1282,233.7344 Q2343.5501,234.0313 2342.9095,234.1719 Q2342.2688,234.3281 2341.5657,234.3281 Q2339.0657,234.3281 2337.7376,232.6875 Q2336.4251,231.0313 2336.4251,227.9063 Q2336.4251,224.7813 2337.7376,223.125 Q2339.0657,221.4688 2341.5657,221.4688 Q2342.2688,221.4688 2342.9095,221.625 Q2343.5657,221.7813 2344.1282,222.0781 L2344.1282,224.7969 Q2343.5032,224.2188 2342.9095,223.9531 Q2342.3157,223.6719 2341.6907,223.6719 Q2340.347,223.6719 2339.6595,224.75 Q2338.972,225.8125 2338.972,227.9063 Q2338.972,230 2339.6595,231.0781 Q2340.347,232.1406 2341.6907,232.1406 Q2342.3157,232.1406 2342.9095,231.875 Q2343.5032,231.5938 2344.1282,231.0156 L2344.1282,233.7344 Z " fill="#000000"/><text fill="#000000" font-family="sans-serif" font-size="12" lengthAdjust="spacing" textLength="81.3691" x="2365.6394" y="232.248">EventDerived</text><line style="stroke:#444444;stroke-width:1;" x1="2298" x2="2482.168" y1="244.0938" y2="244.0938"/><line style="stroke:#444444;stroke-width:1;" x1="2298" x2="2482.168" y1="252.0938" y2="252.0938"/><text fill="#000000" font-family="sans-serif" font-size="14" lengthAdjust="spacing" textLength="166.168" x="2307" y="273.0889">+buildResult(c) : Result</text></g><!--class WinDrawLoss_3_1_0--><g class="entity" data-qualified-name="Football Module.WinDrawLoss_3_1_0" data-source-line="57" id="ent0014"><rect fill="#FFFFFF" height="72.2969" rx="2.5" ry="2.5" style="stroke:#444444;stroke-width:1;" width="173.2002" x="3130.5" y="212.0938"/><ellipse cx="3150.7282" cy="228.0938" fill="#ADD1B2" rx="11" ry="11" style="stroke:#181818;stroke-width:1;"/><path d="M3153.6969,233.7344 Q3153.1188,234.0313 3152.4782,234.1719 Q3151.8375,234.3281 3151.1344,234.3281 Q3148.6344,234.3281 3147.3063,232.6875 Q3145.9938,231.0313 3145.9938,227.9063 Q3145.9938,224.7813 3147.3063,223.125 Q3148.6344,221.4688 3151.1344,221.4688 Q3151.8375,221.4688 3152.4782,221.625 Q3153.1344,221.7813 3153.6969,222.0781 L3153.6969,224.7969 Q3153.0719,224.2188 3152.4782,223.9531 Q3151.8844,223.6719 3151.2594,223.6719 Q3149.9157,223.6719 3149.2282,224.75 Q3148.5407,225.8125 3148.5407,227.9063 Q3148.5407,230 3149.2282,231.0781 Q3149.9157,232.1406 3151.2594,232.1406 Q3151.8844,232.1406 3152.4782,231.875 Q3153.0719,231.5938 3153.6969,231.0156 L3153.6969,233.7344 Z " fill="#000000"/><text fill="#000000" font-family="sans-serif" font-size="12" lengthAdjust="spacing" textLength="121.582" x="3169.89" y="232.248">WinDrawLoss_3_1_0</text><line style="stroke:#444444;stroke-width:1;" x1="3131.5" x2="3302.7002" y1="244.0938" y2="244.0938"/><line style="stroke:#444444;stroke-width:1;" x1="3131.5" x2="3302.7002" y1="252.0938" y2="252.0938"/><text fill="#000000" font-family="sans-serif" font-size="14" lengthAdjust="spacing" textLength="153.2002" x="3140.5" y="273.0889">+points(sc) : Numeric</text></g><!--class RoundRobin--><g class="entity" data-qualified-name="Football Module.RoundRobin" data-source-line="62" id="ent0015"><rect fill="#FFFFFF" height="96.5938" rx="2.5" ry="2.5" style="stroke:#444444;stroke-width:1;" width="318.0879" x="3339" y="199.5938"/><ellipse cx="3453.4219" cy="215.5938" fill="#ADD1B2" rx="11" ry="11" style="stroke:#181818;stroke-width:1;"/><path d="M3456.3906,221.2344 Q3455.8125,221.5313 3455.1719,221.6719 Q3454.5313,221.8281 3453.8281,221.8281 Q3451.3281,221.8281 3450,220.1875 Q3448.6875,218.5313 3448.6875,215.4063 Q3448.6875,212.2813 3450,210.625 Q3451.3281,208.9688 3453.8281,208.9688 Q3454.5313,208.9688 3455.1719,209.125 Q3455.8281,209.2813 3456.3906,209.5781 L3456.3906,212.2969 Q3455.7656,211.7188 3455.1719,211.4531 Q3454.5781,211.1719 3453.9531,211.1719 Q3452.6094,211.1719 3451.9219,212.25 Q3451.2344,213.3125 3451.2344,215.4063 Q3451.2344,217.5 3451.9219,218.5781 Q3452.6094,219.6406 3453.9531,219.6406 Q3454.5781,219.6406 3455.1719,219.375 Q3455.7656,219.0938 3456.3906,218.5156 L3456.3906,221.2344 Z " fill="#000000"/><text fill="#000000" font-family="sans-serif" font-size="12" lengthAdjust="spacing" textLength="72.7441" x="3477.9219" y="219.748">RoundRobin</text><line style="stroke:#444444;stroke-width:1;" x1="3340" x2="3656.0879" y1="231.5938" y2="231.5938"/><text fill="#000000" font-family="sans-serif" font-size="14" lengthAdjust="spacing" textLength="236.3184" x="3349" y="252.5889">+homeAndAway : Boolean = true</text><line style="stroke:#444444;stroke-width:1;" x1="3340" x2="3656.0879" y1="263.8906" y2="263.8906"/><text fill="#000000" font-family="sans-serif" font-size="14" lengthAdjust="spacing" textLength="298.0879" x="3349" y="284.8857">+nextRound(competition) : List&lt;Contest&gt;</text></g><!--class PointsTable--><g class="entity" data-qualified-name="Football Module.PointsTable" data-source-line="70" id="ent0016"><rect fill="#FFFFFF" height="72.2969" rx="2.5" ry="2.5" style="stroke:#444444;stroke-width:1;" width="290.5527" x="3691.5" y="212.0938"/><ellipse cx="3793.7803" cy="228.0938" fill="#ADD1B2" rx="11" ry="11" style="stroke:#181818;stroke-width:1;"/><path d="M3796.749,233.7344 Q3796.1709,234.0313 3795.5303,234.1719 Q3794.8896,234.3281 3794.1865,234.3281 Q3791.6865,234.3281 3790.3584,232.6875 Q3789.0459,231.0313 3789.0459,227.9063 Q3789.0459,224.7813 3790.3584,223.125 Q3791.6865,221.4688 3794.1865,221.4688 Q3794.8896,221.4688 3795.5303,221.625 Q3796.1865,221.7813 3796.749,222.0781 L3796.749,224.7969 Q3796.124,224.2188 3795.5303,223.9531 Q3794.9365,223.6719 3794.3115,223.6719 Q3792.9678,223.6719 3792.2803,224.75 Q3791.5928,225.8125 3791.5928,227.9063 Q3791.5928,230 3792.2803,231.0781 Q3792.9678,232.1406 3794.3115,232.1406 Q3794.9365,232.1406 3795.5303,231.875 Q3796.124,231.5938 3796.749,231.0156 L3796.749,233.7344 Z " fill="#000000"/><text fill="#000000" font-family="sans-serif" font-size="12" lengthAdjust="spacing" textLength="69.4922" x="3818.2803" y="232.248">PointsTable</text><line style="stroke:#444444;stroke-width:1;" x1="3692.5" x2="3981.0527" y1="244.0938" y2="244.0938"/><line style="stroke:#444444;stroke-width:1;" x1="3692.5" x2="3981.0527" y1="252.0938" y2="252.0938"/><text fill="#000000" font-family="sans-serif" font-size="14" lengthAdjust="spacing" textLength="270.5527" x="3701.5" y="273.0889">+compute(competition) : Leaderboard</text></g><!--class GoalDifference--><g class="entity" data-qualified-name="Football Module.GoalDifference" data-source-line="76" id="ent0017"><rect fill="#FFFFFF" height="96.5938" rx="2.5" ry="2.5" style="stroke:#444444;stroke-width:1;" width="313.7813" x="1948" y="199.5938"/><ellipse cx="2051.8223" cy="215.5938" fill="#ADD1B2" rx="11" ry="11" style="stroke:#181818;stroke-width:1;"/><path d="M2054.791,221.2344 Q2054.2129,221.5313 2053.5723,221.6719 Q2052.9316,221.8281 2052.2285,221.8281 Q2049.7285,221.8281 2048.4004,220.1875 Q2047.0879,218.5313 2047.0879,215.4063 Q2047.0879,212.2813 2048.4004,210.625 Q2049.7285,208.9688 2052.2285,208.9688 Q2052.9316,208.9688 2053.5723,209.125 Q2054.2285,209.2813 2054.791,209.5781 L2054.791,212.2969 Q2054.166,211.7188 2053.5723,211.4531 Q2052.9785,211.1719 2052.3535,211.1719 Q2051.0098,211.1719 2050.3223,212.25 Q2049.6348,213.3125 2049.6348,215.4063 Q2049.6348,217.5 2050.3223,218.5781 Q2051.0098,219.6406 2052.3535,219.6406 Q2052.9785,219.6406 2053.5723,219.375 Q2054.166,219.0938 2054.791,218.5156 L2054.791,221.2344 Z " fill="#000000"/><text fill="#000000" font-family="sans-serif" font-size="12" lengthAdjust="spacing" textLength="89.6367" x="2076.3223" y="219.748">GoalDifference</text><line style="stroke:#444444;stroke-width:1;" x1="1949" x2="2260.7813" y1="231.5938" y2="231.5938"/><text fill="#000000" font-family="sans-serif" font-size="14" lengthAdjust="spacing" textLength="117.6055" x="1958" y="252.5889">+next : Tiebreak</text><line style="stroke:#444444;stroke-width:1;" x1="1949" x2="2260.7813" y1="263.8906" y2="263.8906"/><text fill="#000000" font-family="sans-serif" font-size="14" lengthAdjust="spacing" textLength="293.7813" x="1958" y="284.8857">+resolve(tied, results) : List&lt;Participant&gt;</text></g><!--class HeadToHead_Football--><g class="entity" data-qualified-name="Football Module.HeadToHead_Football" data-source-line="83" id="ent0018"><rect fill="#FFFFFF" height="96.5938" rx="2.5" ry="2.5" style="stroke:#444444;stroke-width:1;" width="313.7813" x="1948" y="392.5938"/><ellipse cx="2030.9629" cy="408.5938" fill="#ADD1B2" rx="11" ry="11" style="stroke:#181818;stroke-width:1;"/><path d="M2033.9316,414.2344 Q2033.3535,414.5313 2032.7129,414.6719 Q2032.0723,414.8281 2031.3691,414.8281 Q2028.8691,414.8281 2027.541,413.1875 Q2026.2285,411.5313 2026.2285,408.4063 Q2026.2285,405.2813 2027.541,403.625 Q2028.8691,401.9688 2031.3691,401.9688 Q2032.0723,401.9688 2032.7129,402.125 Q2033.3691,402.2813 2033.9316,402.5781 L2033.9316,405.2969 Q2033.3066,404.7188 2032.7129,404.4531 Q2032.1191,404.1719 2031.4941,404.1719 Q2030.1504,404.1719 2029.4629,405.25 Q2028.7754,406.3125 2028.7754,408.4063 Q2028.7754,410.5 2029.4629,411.5781 Q2030.1504,412.6406 2031.4941,412.6406 Q2032.1191,412.6406 2032.7129,412.375 Q2033.3066,412.0938 2033.9316,411.5156 L2033.9316,414.2344 Z " fill="#000000"/><text fill="#000000" font-family="sans-serif" font-size="12" lengthAdjust="spacing" textLength="131.3555" x="2055.4629" y="412.748">HeadToHead_Football</text><line style="stroke:#444444;stroke-width:1;" x1="1949" x2="2260.7813" y1="424.5938" y2="424.5938"/><text fill="#000000" font-family="sans-serif" font-size="14" lengthAdjust="spacing" textLength="117.6055" x="1958" y="445.5889">+next : Tiebreak</text><line style="stroke:#444444;stroke-width:1;" x1="1949" x2="2260.7813" y1="456.8906" y2="456.8906"/><text fill="#000000" font-family="sans-serif" font-size="14" lengthAdjust="spacing" textLength="293.7813" x="1958" y="477.8857">+resolve(tied, results) : List&lt;Participant&gt;</text></g><!--class ContestEvent--><g class="entity" data-qualified-name="Football Module.ContestEvent" data-source-line="89" id="ent0019"><rect fill="#FFFFFF" height="120.8906" rx="2.5" ry="2.5" style="stroke:#444444;stroke-width:1;" width="169.7822" x="2297" y="380.5938"/><ellipse cx="2334.0654" cy="396.5938" fill="#ADD1B2" rx="11" ry="11" style="stroke:#181818;stroke-width:1;"/><path d="M2337.0341,402.2344 Q2336.456,402.5313 2335.8154,402.6719 Q2335.1748,402.8281 2334.4716,402.8281 Q2331.9716,402.8281 2330.6435,401.1875 Q2329.331,399.5313 2329.331,396.4063 Q2329.331,393.2813 2330.6435,391.625 Q2331.9716,389.9688 2334.4716,389.9688 Q2335.1748,389.9688 2335.8154,390.125 Q2336.4716,390.2813 2337.0341,390.5781 L2337.0341,393.2969 Q2336.4091,392.7188 2335.8154,392.4531 Q2335.2216,392.1719 2334.5966,392.1719 Q2333.2529,392.1719 2332.5654,393.25 Q2331.8779,394.3125 2331.8779,396.4063 Q2331.8779,398.5 2332.5654,399.5781 Q2333.2529,400.6406 2334.5966,400.6406 Q2335.2216,400.6406 2335.8154,400.375 Q2336.4091,400.0938 2337.0341,399.5156 L2337.0341,402.2344 Z " fill="#000000"/><text fill="#000000" font-family="sans-serif" font-size="12" lengthAdjust="spacing" textLength="80.748" x="2356.9688" y="400.748">ContestEvent</text><line style="stroke:#444444;stroke-width:1;" x1="2298" x2="2465.7822" y1="412.5938" y2="412.5938"/><text fill="#000000" font-family="sans-serif" font-size="14" lengthAdjust="spacing" textLength="126.041" x="2307" y="433.5889">+kind : EventKind</text><text fill="#000000" font-family="sans-serif" font-size="14" lengthAdjust="spacing" textLength="92.9756" x="2307" y="457.8857">+minute : int</text><text fill="#000000" font-family="sans-serif" font-size="14" lengthAdjust="spacing" textLength="149.7822" x="2307" y="482.1826">+participantId : UUID</text><line style="stroke:#444444;stroke-width:1;" x1="2298" x2="2465.7822" y1="493.4844" y2="493.4844"/></g><!--class ChessSport--><g class="entity" data-qualified-name="Chess Module.ChessSport" data-source-line="101" id="ent0021"><rect fill="#FFFFFF" height="120.8906" rx="2.5" ry="2.5" style="stroke:#444444;stroke-width:1;" width="263.8926" x="804" y="187.5938"/><ellipse cx="893.6533" cy="203.5938" fill="#ADD1B2" rx="11" ry="11" style="stroke:#181818;stroke-width:1;"/><path d="M896.6221,209.2344 Q896.0439,209.5313 895.4033,209.6719 Q894.7627,209.8281 894.0596,209.8281 Q891.5596,209.8281 890.2314,208.1875 Q888.9189,206.5313 888.9189,203.4063 Q888.9189,200.2813 890.2314,198.625 Q891.5596,196.9688 894.0596,196.9688 Q894.7627,196.9688 895.4033,197.125 Q896.0596,197.2813 896.6221,197.5781 L896.6221,200.2969 Q895.9971,199.7188 895.4033,199.4531 Q894.8096,199.1719 894.1846,199.1719 Q892.8408,199.1719 892.1533,200.25 Q891.4658,201.3125 891.4658,203.4063 Q891.4658,205.5 892.1533,206.5781 Q892.8408,207.6406 894.1846,207.6406 Q894.8096,207.6406 895.4033,207.375 Q895.9971,207.0938 896.6221,206.5156 L896.6221,209.2344 Z " fill="#000000"/><text fill="#000000" font-family="sans-serif" font-size="12" lengthAdjust="spacing" textLength="68.0859" x="918.1533" y="207.748">ChessSport</text><line style="stroke:#444444;stroke-width:1;" x1="805" x2="1066.8926" y1="219.5938" y2="219.5938"/><text fill="#000000" font-family="sans-serif" font-size="14" lengthAdjust="spacing" textLength="126.793" x="814" y="240.5889">+name = "Chess"</text><text fill="#000000" font-family="sans-serif" font-size="14" lengthAdjust="spacing" textLength="242.874" x="814" y="264.8857">+allowedRoles = {WHITE, BLACK}</text><text fill="#000000" font-family="sans-serif" font-size="14" lengthAdjust="spacing" textLength="243.8926" x="814" y="289.1826">+defaultCapabilities = {MoveLog}</text><line style="stroke:#444444;stroke-width:1;" x1="805" x2="1066.8926" y1="300.4844" y2="300.4844"/></g><!--class TerminalCondition--><g class="entity" data-qualified-name="Chess Module.TerminalCondition" data-source-line="109" id="ent0022"><rect fill="#FFFFFF" height="72.2969" rx="2.5" ry="2.5" style="stroke:#444444;stroke-width:1;" width="224.374" x="1103" y="212.0938"/><ellipse cx="1151.8237" cy="228.0938" fill="#ADD1B2" rx="11" ry="11" style="stroke:#181818;stroke-width:1;"/><path d="M1154.7925,233.7344 Q1154.2144,234.0313 1153.5737,234.1719 Q1152.9331,234.3281 1152.23,234.3281 Q1149.73,234.3281 1148.4019,232.6875 Q1147.0894,231.0313 1147.0894,227.9063 Q1147.0894,224.7813 1148.4019,223.125 Q1149.73,221.4688 1152.23,221.4688 Q1152.9331,221.4688 1153.5737,221.625 Q1154.23,221.7813 1154.7925,222.0781 L1154.7925,224.7969 Q1154.1675,224.2188 1153.5737,223.9531 Q1152.98,223.6719 1152.355,223.6719 Q1151.0112,223.6719 1150.3237,224.75 Q1149.6362,225.8125 1149.6362,227.9063 Q1149.6362,230 1150.3237,231.0781 Q1151.0112,232.1406 1152.355,232.1406 Q1152.98,232.1406 1153.5737,231.875 Q1154.1675,231.5938 1154.7925,231.0156 L1154.7925,233.7344 Z " fill="#000000"/><text fill="#000000" font-family="sans-serif" font-size="12" lengthAdjust="spacing" textLength="110.2266" x="1176.3237" y="232.248">TerminalCondition</text><line style="stroke:#444444;stroke-width:1;" x1="1104" x2="1326.374" y1="244.0938" y2="244.0938"/><line style="stroke:#444444;stroke-width:1;" x1="1104" x2="1326.374" y1="252.0938" y2="252.0938"/><text fill="#000000" font-family="sans-serif" font-size="14" lengthAdjust="spacing" textLength="204.374" x="1113" y="273.0889">+isOver(c) : TerminationKind</text></g><!--class Declared--><g class="entity" data-qualified-name="Chess Module.Declared" data-source-line="117" id="ent0023"><rect fill="#FFFFFF" height="72.2969" rx="2.5" ry="2.5" style="stroke:#444444;stroke-width:1;" width="186.168" x="583" y="212.0938"/><ellipse cx="640.9131" cy="228.0938" fill="#ADD1B2" rx="11" ry="11" style="stroke:#181818;stroke-width:1;"/><path d="M643.8818,233.7344 Q643.3037,234.0313 642.6631,234.1719 Q642.0225,234.3281 641.3193,234.3281 Q638.8193,234.3281 637.4912,232.6875 Q636.1787,231.0313 636.1787,227.9063 Q636.1787,224.7813 637.4912,223.125 Q638.8193,221.4688 641.3193,221.4688 Q642.0225,221.4688 642.6631,221.625 Q643.3193,221.7813 643.8818,222.0781 L643.8818,224.7969 Q643.2568,224.2188 642.6631,223.9531 Q642.0693,223.6719 641.4443,223.6719 Q640.1006,223.6719 639.4131,224.75 Q638.7256,225.8125 638.7256,227.9063 Q638.7256,230 639.4131,231.0781 Q640.1006,232.1406 641.4443,232.1406 Q642.0693,232.1406 642.6631,231.875 Q643.2568,231.5938 643.8818,231.0156 L643.8818,233.7344 Z " fill="#000000"/><text fill="#000000" font-family="sans-serif" font-size="12" lengthAdjust="spacing" textLength="53.8418" x="665.4131" y="232.248">Declared</text><line style="stroke:#444444;stroke-width:1;" x1="584" x2="768.168" y1="244.0938" y2="244.0938"/><line style="stroke:#444444;stroke-width:1;" x1="584" x2="768.168" y1="252.0938" y2="252.0938"/><text fill="#000000" font-family="sans-serif" font-size="14" lengthAdjust="spacing" textLength="166.168" x="593" y="273.0889">+buildResult(c) : Result</text></g><!--class WinDrawLoss_1_0p5_0--><g class="entity" data-qualified-name="Chess Module.WinDrawLoss_1_0p5_0" data-source-line="125" id="ent0024"><rect fill="#FFFFFF" height="72.2969" rx="2.5" ry="2.5" style="stroke:#444444;stroke-width:1;" width="176.834" x="1362.5" y="212.0938"/><ellipse cx="1377.5" cy="228.0938" fill="#ADD1B2" rx="11" ry="11" style="stroke:#181818;stroke-width:1;"/><path d="M1380.4688,233.7344 Q1379.8906,234.0313 1379.25,234.1719 Q1378.6094,234.3281 1377.9063,234.3281 Q1375.4063,234.3281 1374.0781,232.6875 Q1372.7656,231.0313 1372.7656,227.9063 Q1372.7656,224.7813 1374.0781,223.125 Q1375.4063,221.4688 1377.9063,221.4688 Q1378.6094,221.4688 1379.25,221.625 Q1379.9063,221.7813 1380.4688,222.0781 L1380.4688,224.7969 Q1379.8438,224.2188 1379.25,223.9531 Q1378.6563,223.6719 1378.0313,223.6719 Q1376.6875,223.6719 1376,224.75 Q1375.3125,225.8125 1375.3125,227.9063 Q1375.3125,230 1376,231.0781 Q1376.6875,232.1406 1378.0313,232.1406 Q1378.6563,232.1406 1379.25,231.875 Q1379.8438,231.5938 1380.4688,231.0156 L1380.4688,233.7344 Z " fill="#000000"/><text fill="#000000" font-family="sans-serif" font-size="12" lengthAdjust="spacing" textLength="136.834" x="1395.5" y="232.248">WinDrawLoss_1_0p5_0</text><line style="stroke:#444444;stroke-width:1;" x1="1363.5" x2="1538.334" y1="244.0938" y2="244.0938"/><line style="stroke:#444444;stroke-width:1;" x1="1363.5" x2="1538.334" y1="252.0938" y2="252.0938"/><text fill="#000000" font-family="sans-serif" font-size="14" lengthAdjust="spacing" textLength="153.2002" x="1372.5" y="273.0889">+points(sc) : Numeric</text></g><!--class SwissPairing--><g class="entity" data-qualified-name="Chess Module.SwissPairing" data-source-line="130" id="ent0025"><rect fill="#FFFFFF" height="96.5938" rx="2.5" ry="2.5" style="stroke:#444444;stroke-width:1;" width="318.0879" x="1574" y="199.5938"/><ellipse cx="1687.4521" cy="215.5938" fill="#ADD1B2" rx="11" ry="11" style="stroke:#181818;stroke-width:1;"/><path d="M1690.4209,221.2344 Q1689.8428,221.5313 1689.2021,221.6719 Q1688.5615,221.8281 1687.8584,221.8281 Q1685.3584,221.8281 1684.0303,220.1875 Q1682.7178,218.5313 1682.7178,215.4063 Q1682.7178,212.2813 1684.0303,210.625 Q1685.3584,208.9688 1687.8584,208.9688 Q1688.5615,208.9688 1689.2021,209.125 Q1689.8584,209.2813 1690.4209,209.5781 L1690.4209,212.2969 Q1689.7959,211.7188 1689.2021,211.4531 Q1688.6084,211.1719 1687.9834,211.1719 Q1686.6396,211.1719 1685.9521,212.25 Q1685.2646,213.3125 1685.2646,215.4063 Q1685.2646,217.5 1685.9521,218.5781 Q1686.6396,219.6406 1687.9834,219.6406 Q1688.6084,219.6406 1689.2021,219.375 Q1689.7959,219.0938 1690.4209,218.5156 L1690.4209,221.2344 Z " fill="#000000"/><text fill="#000000" font-family="sans-serif" font-size="12" lengthAdjust="spacing" textLength="74.6836" x="1711.9521" y="219.748">SwissPairing</text><line style="stroke:#444444;stroke-width:1;" x1="1575" x2="1891.0879" y1="231.5938" y2="231.5938"/><text fill="#000000" font-family="sans-serif" font-size="14" lengthAdjust="spacing" textLength="248.1309" x="1584" y="252.5889">+avoidRematches : Boolean = true</text><line style="stroke:#444444;stroke-width:1;" x1="1575" x2="1891.0879" y1="263.8906" y2="263.8906"/><text fill="#000000" font-family="sans-serif" font-size="14" lengthAdjust="spacing" textLength="298.0879" x="1584" y="284.8857">+nextRound(competition) : List&lt;Contest&gt;</text></g><!--class Buchholz--><g class="entity" data-qualified-name="Chess Module.Buchholz" data-source-line="139" id="ent0026"><rect fill="#FFFFFF" height="96.5938" rx="2.5" ry="2.5" style="stroke:#444444;stroke-width:1;" width="313.7813" x="234" y="199.5938"/><ellipse cx="355.3301" cy="215.5938" fill="#ADD1B2" rx="11" ry="11" style="stroke:#181818;stroke-width:1;"/><path d="M358.2988,221.2344 Q357.7207,221.5313 357.0801,221.6719 Q356.4395,221.8281 355.7363,221.8281 Q353.2363,221.8281 351.9082,220.1875 Q350.5957,218.5313 350.5957,215.4063 Q350.5957,212.2813 351.9082,210.625 Q353.2363,208.9688 355.7363,208.9688 Q356.4395,208.9688 357.0801,209.125 Q357.7363,209.2813 358.2988,209.5781 L358.2988,212.2969 Q357.6738,211.7188 357.0801,211.4531 Q356.4863,211.1719 355.8613,211.1719 Q354.5176,211.1719 353.8301,212.25 Q353.1426,213.3125 353.1426,215.4063 Q353.1426,217.5 353.8301,218.5781 Q354.5176,219.6406 355.8613,219.6406 Q356.4863,219.6406 357.0801,219.375 Q357.6738,219.0938 358.2988,218.5156 L358.2988,221.2344 Z " fill="#000000"/><text fill="#000000" font-family="sans-serif" font-size="12" lengthAdjust="spacing" textLength="54.6211" x="379.8301" y="219.748">Buchholz</text><line style="stroke:#444444;stroke-width:1;" x1="235" x2="546.7813" y1="231.5938" y2="231.5938"/><text fill="#000000" font-family="sans-serif" font-size="14" lengthAdjust="spacing" textLength="117.6055" x="244" y="252.5889">+next : Tiebreak</text><line style="stroke:#444444;stroke-width:1;" x1="235" x2="546.7813" y1="263.8906" y2="263.8906"/><text fill="#000000" font-family="sans-serif" font-size="14" lengthAdjust="spacing" textLength="293.7813" x="244" y="284.8857">+resolve(tied, results) : List&lt;Participant&gt;</text></g><!--class SonnebornBerger--><g class="entity" data-qualified-name="Chess Module.SonnebornBerger" data-source-line="145" id="ent0027"><rect fill="#FFFFFF" height="96.5938" rx="2.5" ry="2.5" style="stroke:#444444;stroke-width:1;" width="313.7813" x="570" y="392.5938"/><ellipse cx="665.874" cy="408.5938" fill="#ADD1B2" rx="11" ry="11" style="stroke:#181818;stroke-width:1;"/><path d="M668.8428,414.2344 Q668.2646,414.5313 667.624,414.6719 Q666.9834,414.8281 666.2803,414.8281 Q663.7803,414.8281 662.4521,413.1875 Q661.1396,411.5313 661.1396,408.4063 Q661.1396,405.2813 662.4521,403.625 Q663.7803,401.9688 666.2803,401.9688 Q666.9834,401.9688 667.624,402.125 Q668.2803,402.2813 668.8428,402.5781 L668.8428,405.2969 Q668.2178,404.7188 667.624,404.4531 Q667.0303,404.1719 666.4053,404.1719 Q665.0615,404.1719 664.374,405.25 Q663.6865,406.3125 663.6865,408.4063 Q663.6865,410.5 664.374,411.5781 Q665.0615,412.6406 666.4053,412.6406 Q667.0303,412.6406 667.624,412.375 Q668.2178,412.0938 668.8428,411.5156 L668.8428,414.2344 Z " fill="#000000"/><text fill="#000000" font-family="sans-serif" font-size="12" lengthAdjust="spacing" textLength="105.5332" x="690.374" y="412.748">SonnebornBerger</text><line style="stroke:#444444;stroke-width:1;" x1="571" x2="882.7813" y1="424.5938" y2="424.5938"/><text fill="#000000" font-family="sans-serif" font-size="14" lengthAdjust="spacing" textLength="117.6055" x="580" y="445.5889">+next : Tiebreak</text><line style="stroke:#444444;stroke-width:1;" x1="571" x2="882.7813" y1="456.8906" y2="456.8906"/><text fill="#000000" font-family="sans-serif" font-size="14" lengthAdjust="spacing" textLength="293.7813" x="580" y="477.8857">+resolve(tied, results) : List&lt;Participant&gt;</text></g><!--class MoveLog--><g class="entity" data-qualified-name="Chess Module.MoveLog" data-source-line="151" id="ent0028"><rect fill="#FFFFFF" height="72.2969" rx="2.5" ry="2.5" style="stroke:#444444;stroke-width:1;" width="177.2197" x="21.5" y="212.0938"/><ellipse cx="74.9478" cy="228.0938" fill="#ADD1B2" rx="11" ry="11" style="stroke:#181818;stroke-width:1;"/><path d="M77.9165,233.7344 Q77.3384,234.0313 76.6978,234.1719 Q76.0571,234.3281 75.354,234.3281 Q72.854,234.3281 71.5259,232.6875 Q70.2134,231.0313 70.2134,227.9063 Q70.2134,224.7813 71.5259,223.125 Q72.854,221.4688 75.354,221.4688 Q76.0571,221.4688 76.6978,221.625 Q77.354,221.7813 77.9165,222.0781 L77.9165,224.7969 Q77.2915,224.2188 76.6978,223.9531 Q76.104,223.6719 75.479,223.6719 Q74.1353,223.6719 73.4478,224.75 Q72.7603,225.8125 72.7603,227.9063 Q72.7603,230 73.4478,231.0781 Q74.1353,232.1406 75.479,232.1406 Q76.104,232.1406 76.6978,231.875 Q77.2915,231.5938 77.9165,231.0156 L77.9165,233.7344 Z " fill="#000000"/><text fill="#000000" font-family="sans-serif" font-size="12" lengthAdjust="spacing" textLength="53.8242" x="99.4478" y="232.248">MoveLog</text><line style="stroke:#444444;stroke-width:1;" x1="22.5" x2="197.7197" y1="244.0938" y2="244.0938"/><text fill="#000000" font-family="sans-serif" font-size="14" lengthAdjust="spacing" textLength="157.2197" x="31.5" y="265.0889">+moves : List&lt;Move&gt;</text><line style="stroke:#444444;stroke-width:1;" x1="22.5" x2="197.7197" y1="276.3906" y2="276.3906"/></g><g class="entity" data-qualified-name="GMN48" data-source-line="188" id="ent0049"><path d="M1536.5,67.5938 L1536.5,115.8594 A0,0 0 0 0 1536.5,115.8594 L1729,115.8594 L1733,199.3338 L1737,115.8594 L1929.189,115.8594 A0,0 0 0 0 1929.189,115.8594 L1929.189,77.5938 L1919.189,67.5938 L1536.5,67.5938 A0,0 0 0 0 1536.5,67.5938" fill="#FEFFDD" style="stroke:#181818;stroke-width:0.5;"/><path d="M1919.189,67.5938 L1919.189,77.5938 L1929.189,77.5938 L1919.189,67.5938" fill="#FEFFDD" style="stroke:#181818;stroke-width:0.5;"/><text fill="#000000" font-family="sans-serif" font-size="13" lengthAdjust="spacing" textLength="286.9331" x="1546.5" y="88.6606">Reads current standings before each round.</text><text fill="#000000" font-family="sans-serif" font-size="13" lengthAdjust="spacing" textLength="363.689" x="1546.5" y="103.7935">Cannot emit round N+1 before round N is fully decided.</text></g><g class="entity" data-qualified-name="GMN51" data-source-line="193" id="ent0052"><path d="M484,67.5938 L484,115.8594 A0,0 0 0 0 484,115.8594 L672,115.8594 L676,212.0238 L680,115.8594 L867.834,115.8594 A0,0 0 0 0 867.834,115.8594 L867.834,77.5938 L857.834,67.5938 L484,67.5938 A0,0 0 0 0 484,67.5938" fill="#FEFFDD" style="stroke:#181818;stroke-width:0.5;"/><path d="M857.834,67.5938 L857.834,77.5938 L867.834,77.5938 L857.834,67.5938" fill="#FEFFDD" style="stroke:#181818;stroke-width:0.5;"/><text fill="#000000" font-family="sans-serif" font-size="13" lengthAdjust="spacing" textLength="165.0327" x="494" y="88.6606">Does NOT read MoveLog.</text><text fill="#000000" font-family="sans-serif" font-size="13" lengthAdjust="spacing" textLength="354.834" x="494" y="103.7935">Reads only TerminationKind set by TerminalCondition.</text></g><g class="entity" data-qualified-name="GMN54" data-source-line="198" id="ent0055"><path d="M4014.5,401.5938 L4014.5,480.125 L4419.7383,480.125 L4419.7383,411.5938 L4409.7383,401.5938 L4014.5,401.5938" fill="#FEFFDD" style="stroke:#181818;stroke-width:0.5;"/><path d="M4409.7383,401.5938 L4409.7383,411.5938 L4419.7383,411.5938 L4409.7383,401.5938" fill="#FEFFDD" style="stroke:#181818;stroke-width:1;"/><text fill="#000000" font-family="sans-serif" font-size="13" lengthAdjust="spacing" textLength="375.2036" x="4024.5" y="422.6606">One StandingsAggregator (PointsTable) is reused by both</text><text fill="#000000" font-family="sans-serif" font-size="13" lengthAdjust="spacing" textLength="369.5034" x="4024.5" y="437.7935">football leagues and chess Swiss competitions. The logic</text><text fill="#000000" font-family="sans-serif" font-size="13" lengthAdjust="spacing" textLength="376.2383" x="4024.5" y="452.9263">is identical; only the plugged-in ScoringRule and Tiebreak</text><text fill="#000000" font-family="sans-serif" font-size="13" lengthAdjust="spacing" textLength="349.8765" x="4024.5" y="468.0591">chain differ. No discipline-specific subclass is needed.</text></g><!--link FootballSport to Sport--><g class="link" data-entity-1="ent0011" data-entity-2="ent0009" data-link-type="extension" data-source-line="160" id="lnk29"><path codeLine="160" d="M2524.5,308.8438 C2524.5,389.5038 2524.5,510.2938 2524.5,566.2038" fill="none" id="FootballSport-to-Sport" style="stroke:#181818;stroke-width:1;stroke-dasharray:7,7;"/><polygon fill="none" points="2524.5,584.2038,2530.5,566.2038,2518.5,566.2038,2524.5,584.2038" style="stroke:#181818;stroke-width:1;"/></g><!--link TimeLimit to TerminationRule--><g class="link" data-entity-1="ent0012" data-entity-2="ent0003" data-link-type="extension" data-source-line="161" id="lnk30"><path codeLine="161" d="M2864.63,317.5938 C2772.65,317.5938 2659.17,317.5938 2659.17,317.5938 C2659.17,317.5938 2659.17,496.3438 2659.17,566.2838" fill="none" id="TimeLimit-to-TerminationRule" style="stroke:#181818;stroke-width:1;stroke-dasharray:7,7;"/><polygon fill="none" points="2659.17,584.2838,2665.17,566.2838,2653.17,566.2838,2659.17,584.2838" style="stroke:#181818;stroke-width:1;"/></g><!--link EventDerived to OutcomeRule--><g class="link" data-entity-1="ent0013" data-entity-2="ent0004" data-link-type="extension" data-source-line="162" id="lnk31"><path codeLine="162" d="M2296.73,248.5938 C2292.21,248.5938 2289.5,248.5938 2289.5,248.5938 C2289.5,248.5938 2289.5,608.5938 2289.5,608.5938 C2289.5,608.5938 2276.69,608.5938 2284.3,608.5938" fill="none" id="EventDerived-to-OutcomeRule" style="stroke:#181818;stroke-width:1;stroke-dasharray:7,7;"/><polygon fill="none" points="2302.3,608.5938,2284.3,602.5938,2284.3,614.5938,2302.3,608.5938" style="stroke:#181818;stroke-width:1;"/></g><!--link WinDrawLoss_3_1_0 to ScoringRule--><g class="link" data-entity-1="ent0014" data-entity-2="ent0005" data-link-type="extension" data-source-line="163" id="lnk32"><path codeLine="163" d="M3182,284.1238 C3182,310.0938 3182,340.5938 3182,340.5938 C3182,340.5938 2841.5,340.5938 2841.5,340.5938 C2841.5,340.5938 2841.5,500.3638 2841.5,566.3338" fill="none" id="WinDrawLoss_3_1_0-to-ScoringRule" style="stroke:#181818;stroke-width:1;stroke-dasharray:7,7;"/><polygon fill="none" points="2841.5,584.3338,2847.5,566.3338,2835.5,566.3338,2841.5,584.3338" style="stroke:#181818;stroke-width:1;"/></g><!--link RoundRobin to FixtureGenerator--><g class="link" data-entity-1="ent0015" data-entity-2="ent0006" data-link-type="extension" data-source-line="164" id="lnk33"><path codeLine="164" d="M3498,296.7838 C3498,327.1838 3498,360.5938 3498,360.5938 C3498,360.5938 2983.83,360.5938 2983.83,360.5938 C2983.83,360.5938 2983.83,503.9638 2983.83,566.3638" fill="none" id="RoundRobin-to-FixtureGenerator" style="stroke:#181818;stroke-width:1;stroke-dasharray:7,7;"/><polygon fill="none" points="2983.83,584.3638,2989.83,566.3638,2977.83,566.3638,2983.83,584.3638" style="stroke:#181818;stroke-width:1;"/></g><!--link PointsTable to StandingsAggregator--><g class="link" data-entity-1="ent0016" data-entity-2="ent0007" data-link-type="extension" data-source-line="165" id="lnk34"><path codeLine="165" d="M3764.25,284.1638 C3764.25,374.0038 3764.25,600.5938 3764.25,600.5938 C3764.25,600.5938 3419.89,600.5938 3251.8,600.5938" fill="none" id="PointsTable-to-StandingsAggregator" style="stroke:#181818;stroke-width:1;stroke-dasharray:7,7;"/><polygon fill="none" points="3233.8,600.5938,3251.8,606.5938,3251.8,594.5938,3233.8,600.5938" style="stroke:#181818;stroke-width:1;"/></g><!--link PointsTable to StandingsAggregator--><g class="link" data-entity-1="ent0016" data-entity-2="ent0007" data-link-type="extension" data-source-line="175" id="lnk42"><path codeLine="175" d="M3837,284.0938 C3837,376.8238 3837,616.5938 3837,616.5938 C3837,616.5938 3434.64,616.5938 3251.55,616.5938" fill="none" id="PointsTable-to-StandingsAggregator-1" style="stroke:#181818;stroke-width:1;stroke-dasharray:7,7;"/><polygon fill="none" points="3233.55,616.5938,3251.55,622.5938,3251.55,610.5938,3233.55,616.5938" style="stroke:#181818;stroke-width:1;"/></g><!--link GoalDifference to Tiebreak--><g class="link" data-entity-1="ent0017" data-entity-2="ent0008" data-link-type="extension" data-source-line="166" id="lnk35"><path codeLine="166" d="M2262.04,290.5938 C2274.27,290.5938 2282,290.5938 2282,290.5938 C2282,290.5938 2282,596.5938 2282,596.5938 C2282,596.5938 2293.74,596.5938 2285.23,596.5938" fill="none" id="GoalDifference-to-Tiebreak" style="stroke:#181818;stroke-width:1;stroke-dasharray:7,7;"/><polygon fill="none" points="2267.23,596.5938,2285.23,602.5938,2285.23,590.5938,2267.23,596.5938" style="stroke:#181818;stroke-width:1;"/></g><!--link HeadToHead_Football to Tiebreak--><g class="link" data-entity-1="ent0018" data-entity-2="ent0008" data-link-type="extension" data-source-line="167" id="lnk36"><path codeLine="167" d="M2218.5,489.9938 C2218.5,521.0838 2218.5,541.9738 2218.5,566.5638" fill="none" id="HeadToHead_Football-to-Tiebreak" style="stroke:#181818;stroke-width:1;stroke-dasharray:7,7;"/><polygon fill="none" points="2218.5,584.5638,2224.5,566.5638,2212.5,566.5638,2218.5,584.5638" style="stroke:#181818;stroke-width:1;"/></g><!--link ChessSport to Sport--><g class="link" data-entity-1="ent0021" data-entity-2="ent0009" data-link-type="extension" data-source-line="170" id="lnk37"><path codeLine="170" d="M1068.21,302.5938 C1441.24,302.5938 2475,302.5938 2475,302.5938 C2475,302.5938 2475,494.4438 2475,566.5838" fill="none" id="ChessSport-to-Sport" style="stroke:#181818;stroke-width:1;stroke-dasharray:7,7;"/><polygon fill="none" points="2475,584.5838,2481,566.5838,2469,566.5838,2475,584.5838" style="stroke:#181818;stroke-width:1;"/></g><!--link TerminalCondition to TerminationRule--><g class="link" data-entity-1="ent0022" data-entity-2="ent0003" data-link-type="extension" data-source-line="171" id="lnk38"><path codeLine="171" d="M1215,284.2038 C1215,365.8438 1215,557.5938 1215,557.5938 C1215,557.5938 2612.83,557.5938 2612.83,557.5938 C2612.83,557.5938 2612.83,553.3638 2612.83,566.5838" fill="none" id="TerminalCondition-to-TerminationRule" style="stroke:#181818;stroke-width:1;stroke-dasharray:7,7;"/><polygon fill="none" points="2612.83,584.5838,2618.83,566.5838,2606.83,566.5838,2612.83,584.5838" style="stroke:#181818;stroke-width:1;"/></g><!--link Declared to OutcomeRule--><g class="link" data-entity-1="ent0023" data-entity-2="ent0004" data-link-type="extension" data-source-line="172" id="lnk39"><path codeLine="172" d="M676,284.4538 C676,299.9838 676,314.5938 676,314.5938 C676,314.5938 2274.5,314.5938 2274.5,314.5938 C2274.5,314.5938 2274.5,620.5938 2274.5,620.5938 C2274.5,620.5938 2268.69,620.5938 2284.02,620.5938" fill="none" id="Declared-to-OutcomeRule" style="stroke:#181818;stroke-width:1;stroke-dasharray:7,7;"/><polygon fill="none" points="2302.02,620.5938,2284.02,614.5938,2284.02,626.5938,2302.02,620.5938" style="stroke:#181818;stroke-width:1;"/></g><!--link WinDrawLoss_1_0p5_0 to ScoringRule--><g class="link" data-entity-1="ent0024" data-entity-2="ent0005" data-link-type="extension" data-source-line="173" id="lnk40"><path codeLine="173" d="M1451,284.2938 C1451,298.5538 1451,311.5938 1451,311.5938 C1451,311.5938 2785.5,311.5938 2785.5,311.5938 C2785.5,311.5938 2785.5,495.8338 2785.5,566.5438" fill="none" id="WinDrawLoss_1_0p5_0-to-ScoringRule" style="stroke:#181818;stroke-width:1;stroke-dasharray:7,7;"/><polygon fill="none" points="2785.5,584.5438,2791.5,566.5438,2779.5,566.5438,2785.5,584.5438" style="stroke:#181818;stroke-width:1;"/></g><!--link SwissPairing to FixtureGenerator--><g class="link" data-entity-1="ent0025" data-entity-2="ent0006" data-link-type="extension" data-source-line="174" id="lnk41"><path codeLine="174" d="M1733,296.8038 C1733,377.3738 1733,529.5938 1733,529.5938 C1733,529.5938 2936.17,529.5938 2936.17,529.5938 C2936.17,529.5938 2936.17,543.2338 2936.17,566.4638" fill="none" id="SwissPairing-to-FixtureGenerator" style="stroke:#181818;stroke-width:1;stroke-dasharray:7,7;"/><polygon fill="none" points="2936.17,584.4638,2942.17,566.4638,2930.17,566.4638,2936.17,584.4638" style="stroke:#181818;stroke-width:1;"/></g><!--link Buchholz to Tiebreak--><g class="link" data-entity-1="ent0026" data-entity-2="ent0008" data-link-type="extension" data-source-line="176" id="lnk43"><path codeLine="176" d="M391,296.6438 C391,396.7138 391,616.5938 391,616.5938 C391,616.5938 1872.72,616.5938 2156.85,616.5938" fill="none" id="Buchholz-to-Tiebreak" style="stroke:#181818;stroke-width:1;stroke-dasharray:7,7;"/><polygon fill="none" points="2174.85,616.5938,2156.85,610.5938,2156.85,622.5938,2174.85,616.5938" style="stroke:#181818;stroke-width:1;"/></g><!--link SonnebornBerger to Tiebreak--><g class="link" data-entity-1="ent0027" data-entity-2="ent0008" data-link-type="extension" data-source-line="177" id="lnk44"><path codeLine="177" d="M727,489.8138 C727,536.7238 727,600.5938 727,600.5938 C727,600.5938 1904.48,600.5938 2156.65,600.5938" fill="none" id="SonnebornBerger-to-Tiebreak" style="stroke:#181818;stroke-width:1;stroke-dasharray:7,7;"/><polygon fill="none" points="2174.65,600.5938,2156.65,594.5938,2156.65,606.5938,2174.65,600.5938" style="stroke:#181818;stroke-width:1;"/></g><!--link GoalDifference to HeadToHead_Football--><g class="link" data-entity-1="ent0017" data-entity-2="ent0018" data-link-type="dependency" data-source-line="181" id="lnk45"><path codeLine="181" d="M2105,296.7938 C2105,326.0538 2105,357.1538 2105,386.4038" fill="none" id="GoalDifference-to-HeadToHead_Football" style="stroke:#181818;stroke-width:1;"/><polygon fill="#181818" points="2105,392.4038,2109,383.4038,2105,387.4038,2101,383.4038,2105,392.4038" style="stroke:#181818;stroke-width:1;"/><polygon fill="#000000" points="2058,337.1702,2060.9389,328.1251,2055.0611,328.1251,2058,337.1702" style="stroke:#000000;stroke-width:1;"/><text fill="#000000" font-family="sans-serif" font-size="13" lengthAdjust="spacing" textLength="29.0278" x="2071" y="336.6706">next</text><text fill="#000000" font-family="sans-serif" font-size="13" lengthAdjust="spacing" textLength="8.271" x="2092.0548" y="320.2304">1</text><text fill="#000000" font-family="sans-serif" font-size="13" lengthAdjust="spacing" textLength="24.8066" x="2074.9189" y="377.4188">0..1</text></g><!--link Buchholz to SonnebornBerger--><g class="link" data-entity-1="ent0026" data-entity-2="ent0027" data-link-type="dependency" data-source-line="182" id="lnk46"><path codeLine="182" d="M548.33,290.5938 C565.27,290.5938 576.5,290.5938 576.5,290.5938 C576.5,290.5938 576.5,342.2838 576.5,386.2338" fill="none" id="Buchholz-to-SonnebornBerger" style="stroke:#181818;stroke-width:1;"/><polygon fill="#181818" points="576.5,392.2338,580.5,383.2338,576.5,387.2338,572.5,383.2338,576.5,392.2338" style="stroke:#181818;stroke-width:1;"/><polygon fill="#000000" points="530.9127,319.6864,531.1763,310.1795,525.5379,311.8403,530.9127,319.6864" style="stroke:#000000;stroke-width:1;"/><text fill="#000000" font-family="sans-serif" font-size="13" lengthAdjust="spacing" textLength="29.0278" x="542.5" y="319.3906">next</text><text fill="#000000" font-family="sans-serif" font-size="13" lengthAdjust="spacing" textLength="8.271" x="559.8326" y="285.0775">1</text><text fill="#000000" font-family="sans-serif" font-size="13" lengthAdjust="spacing" textLength="24.8066" x="533.198" y="379.7611">0..1</text></g><!--link EventDerived to ContestEvent--><g class="link" data-entity-1="ent0013" data-entity-2="ent0019" data-link-type="dependency" data-source-line="185" id="lnk47"><path codeLine="185" d="M2382,284.3938 C2382,311.3638 2382,342.7838 2382,374.2938" fill="none" id="EventDerived-to-ContestEvent" style="stroke:#181818;stroke-width:1;stroke-dasharray:7,7;"/><polygon fill="#181818" points="2382,380.2938,2386,371.2938,2382,375.2938,2378,371.2938,2382,380.2938" style="stroke:#181818;stroke-width:1;"/><polygon fill="#000000" points="2263,324.9102,2265.9389,315.8651,2260.0611,315.8651,2263,324.9102" style="stroke:#000000;stroke-width:1;"/><text fill="#000000" font-family="sans-serif" font-size="13" lengthAdjust="spacing" textLength="101.4419" x="2276" y="324.4106">reads event log</text></g><!--link PointsTable to GMN54--><g class="link" data-entity-1="ent0016" data-entity-2="ent0055" data-link-type="association" data-source-line="198" id="lnk56"><path d="M3909.75,284.4938 C3909.75,340.5438 3909.75,441.5938 3909.75,441.5938 C3909.75,441.5938 3956.87,441.5938 4014.2,441.5938" fill="none" id="PointsTable-GMN54" style="stroke:#181818;stroke-width:1;stroke-dasharray:7,7;"/></g><?plantuml-src jLZjRkCs5lsVfxX8VoJ196xIwG3Jp3Q0Oik9COuTs4hJ0Wi4jCJOtCYabgJYITi1-X1zmZx97b8VbkLCTp8xwnd4idH9NfvxxZsNCWz2Paop9QL2SlkKSLBQBjIEgH_4AJCci5QBMMxv85PoAdxbTDmsELSwuJfQYFX1ScFef64GQArMpp-wPaaYv9o-Ryz7l-qGdRFuOQvLBfEkIfMcsuMmtDttYnNtlldUVt2thwJrpfryj_EnCP-Gbkjx5lDdv_oct--_xH-tPtthFrkpqeuLDkKKVh1S6g4aNQaaJxcXl_xu4xRApbYQ4fC9THVOx3_bI54NKt1ZwLkQS9Edxc9gcJLayfdVB3Vlo5ZDB9yBJALa-eILzlxwyu_F_q_TyIIamIWA9_sW6qvftzXyPkWUkz6SfS8mw_nbBXZcW5uq-Ku6rDYSqsvNQKw32b53-vhVSyrbp0zsWULRzy_Zl4Ozudeff5zz0gWsderp6wibtxe_ZPK6BxRkzyK7csj-mIK7N4fl3hB07QDCC9zhFjzw7Wa-0nGFk5bmR9g1xZwgByIwFnv7vy5mI5VZtiqm_58mQxuK90A0uTl-c_071s3jP6NadVNG4hqYoPQSVgJTm1WLYoAqbULkQODBjUB9H3b-_aY_NOwlmaCAReDVFfOM2Rzd86INPMmcKc55OHW-Scad735mS1R6HqV-Qu-kjReNI077qdVDGA68F7hsWl3BZ2DHu1G6VMni9X9BFXHBiTu80fMdJ5y9YVfYwDJ52pxyS5m-DrPb6T1o8ukdvGF-0HdZxeQIpLAUuE6vmbQPRFhxYeGPFtAz7n_0e475zq8cvOvQTqzf4bxS38C9_KxXpz4ak8i6Lo5-N8UZO1WDmcbhKnwk7jVOVbBlQvQBD2dolLYxk2wNZ560K03cYgL8KQsMLP7mSr6gvgMXMidIoW_10YwX3L3dUWzWPvcIN5RJQh_6AMac7s2QCQ5f9UoY6E2AVClrMo5xcgs6ofYxrtSdTyUr_va2r6RVUDz7-HBRYyjLRkdeZ5uVKizzdnpIq7qVjsQUk18xKJCXwoaNoFH09i6AFQs3XLXRdVFDc4a4rq-m7w-fv1mP2cF_KK9rLhh3GIU0c2EFJBpWBfE8MV0mvfK5YnS4b02BfINdCEVWn1Cfk-2QJg1wz1rPSCcqTd7jKOWSmUfjE9V0rItNE8Dyp1JJ5QzClZGbZfHX7SYH5R78d1SAwxi4HGh68a6iuc9JfXpBKg1a4D1ojUGGeBWnCNDxRBbv0ORqn7rPYHkvPLJwoFUHrnXVaCFKC5wltJbhuExIP5qedIyNFGIf8A7dKK97DIUndFEUnHeKQcwe79jvUKCMYpGzSdwG4z-Ch2eMYpKaNMyNYakW6IdtzwwkabzvMua0khOSluy9PjokE9VatVJ1giLumxUDLAsSGhlXIf2_MTUMLxJqTMsZS3LeC713Rcu6lTAbUlGfNOo38MhE-7PqLrvEmjvTDvZqSDdfT2gUvEZNW26groFtjM6Z6gb2NqaNGlhnIyIkUnbEf_-ZqlbcQ2rpwBbUXySRCkSjdjSu_-XJedPxEOYWQkV3eFl-lyZQ5P9kgFvEpzfgLGX3Ye0dFizhrxv0L01Zz_rL48K-bDF1nIY81kDHQKwuEus2OLXQH9UJCEoFXxsxINWTHeEMQN_GZtwvknh_v6o32zXUXQF8ZODKtVN7atuuY2gA9FzIkPPBnrOKwkdD54BM2tkqBvKbHhRSfQVmGGk27iUt_cnTGtebXb1Ls_l7FTHaBbsnS8_dY6qvPWtCjqrWdAyh8T7eUI8WqrDbgXzrbKIzWNvvruqRmV-TOoTE_z2L7D8C5Pvs4yrNkrNMAv1XD8wygxG49Kgr_PGiGXIpDoyGnfFESIcDnvqtbJXssl8uNGbZhg7FxlHJJSqUbG2sIsPHuytNrCWYBd6kjME1gHfbbBnxrz1dXIDrpHRQDCkKR-eAP55W96VwgFZbvQ2c6SjS4Jg5H4d7BAVBv4zQD7frKYrLtcZ8H1EMypnUB5JwwzUkzP1YKlTrksJs2jTnxbg8kUi1mBIszayLo3TJMfvpFOV9_yUbmWztXQh5cUlmQYzTpyJI3HkmiYsLPLch_NESDfKxxc550Y4HWQLFIPSZlhyls_WwpLk2KMUC2wZFc6erTzuLjYJMTWdy8gMPXC5mC2soFvXCnhVJ5-hDtle8ZgnpgAsFVsPdyoHLV3gTty-eF0Yk3oVhJ_6yVOJTqDWDo-Q1ThkvhjTh76yRZN9hrQt3RhCRtJHzxkZRQWgRswcO-5oNrJ9140jjVWxHXcYt7IeGtHBGJo5Q4t0B-qyXMjNbRKGtQklNHBIkJji4gU1g5urdJ5wS5eCH3g57PGCs78pUlpmjgiKfNZ1NwLhSs3tPXR2SqUvnfuFBvsXnMfInipK8hK7jdTS378Cs4gQe6Li7tWsRJkTiq-Aq7COhUpypoXB7MI9pjR4PTbIWoTzBdZyJUZ5ohNJtSoHB5AVCfqgxEZlePrnbv2rFAZ9Zujv6kr4Mpqxjdgk-MwsIuPPcJzlTv_PwQ6-iyZBI838c7yjdtuRHViFimEr7yzm0RQpcEYMClA_YZRvZdiDtzoepzldlyQL6is4w52ry--Gx84m7L2JKZwNlYfsvJYzBy_cS9qUeRysNHMxUvWivnqiSoHmbEpHIk3HGKVVAuiXamFjUnFNxKhUKv7mZ1Fy1?></g></svg>