<?plantuml 1.2026.2?><svg xmlns="http://www.w3.org/2000/svg" xmlns:xlink="http://www.w3.org/1999/xlink" contentStyleType="text/css" data-diagram-type="CLASS" height="655px" preserveAspectRatio="none" style="width:4654px;height:655px;background:#FFFFFF;" version="1.1" viewBox="0 0 4654 655" width="4654px" zoomAndPan="magnify"><title>Extension Modules &#8212; Football and Chess
No Contest / Result / Stats subclasses; strategies only</title><defs/><g><g class="title" data-source-line="17"><text fill="#000000" font-family="sans-serif" font-size="14" font-weight="bold" lengthAdjust="spacing" textLength="322.3965" x="2159.0168" y="26.9951">Extension Modules &#8212; Football and Chess</text><text fill="#000000" font-family="sans-serif" font-size="14" font-weight="bold" lengthAdjust="spacing" textLength="427.6221" x="2106.4041" y="43.292">No Contest / Result / Stats subclasses; strategies only</text></g><!--cluster Core Interfaces (reference)--><g class="cluster" data-qualified-name="Core Interfaces .reference." data-source-line="20" id="ent0002"><path d="M1096.5,541.5938 L1320.415,541.5938 A3.75,3.75 0 0 1 1322.915,544.0938 L1329.915,571.8906 L2180.5,571.8906 A2.5,2.5 0 0 1 2183,574.3906 L2183,646.0938 A2.5,2.5 0 0 1 2180.5,648.5938 L1096.5,648.5938 A2.5,2.5 0 0 1 1094,646.0938 L1094,544.0938 A2.5,2.5 0 0 1 1096.5,541.5938" fill="#F8F8F8" style="stroke:#000000;stroke-width:1.5;"/><line style="stroke:#000000;stroke-width:1.5;" x1="1094" x2="1329.915" y1="571.8906" y2="571.8906"/><text fill="#000000" font-family="sans-serif" font-size="14" font-weight="bold" lengthAdjust="spacing" textLength="214.915" x="1102" y="560.5889">Core Interfaces (reference)</text></g><!--cluster Football Module--><g class="cluster" data-qualified-name="Football Module" data-source-line="31" id="ent0010"><path d="M8.5,132.5938 L144.7646,132.5938 A3.75,3.75 0 0 1 147.2646,135.0938 L154.2646,162.8906 L2069.5,162.8906 A2.5,2.5 0 0 1 2072,165.3906 L2072,515.0938 A2.5,2.5 0 0 1 2069.5,517.5938 L8.5,517.5938 A2.5,2.5 0 0 1 6,515.0938 L6,135.0938 A2.5,2.5 0 0 1 8.5,132.5938" fill="#E8F5E9" style="stroke:#000000;stroke-width:1.5;"/><line style="stroke:#000000;stroke-width:1.5;" x1="6" x2="154.2646" y1="162.8906" y2="162.8906"/><text fill="#000000" font-family="sans-serif" font-size="14" font-weight="bold" lengthAdjust="spacing" textLength="127.2646" x="14" y="151.5889">Football Module</text></g><!--cluster Chess Module--><g class="cluster" data-qualified-name="Chess Module" data-source-line="99" id="ent0020"><path d="M2098.5,144.5938 L2216.6084,144.5938 A3.75,3.75 0 0 1 2219.1084,147.0938 L2226.1084,174.8906 L4320.5,174.8906 A2.5,2.5 0 0 1 4323,177.3906 L4323,503.0938 A2.5,2.5 0 0 1 4320.5,505.5938 L2098.5,505.5938 A2.5,2.5 0 0 1 2096,503.0938 L2096,147.0938 A2.5,2.5 0 0 1 2098.5,144.5938" fill="#FFF3E0" style="stroke:#000000;stroke-width:1.5;"/><line style="stroke:#000000;stroke-width:1.5;" x1="2096" x2="2226.1084" y1="174.8906" y2="174.8906"/><text fill="#000000" font-family="sans-serif" font-size="14" font-weight="bold" lengthAdjust="spacing" textLength="109.1084" x="2104" y="163.5889">Chess Module</text></g><!--class TerminationRule--><g class="entity" data-qualified-name="Core Interfaces .reference..TerminationRule" data-source-line="21" id="ent0003"><rect fill="#FFFFFF" height="48" rx="2.5" ry="2.5" style="stroke:#444444;stroke-width:1;" width="139.2754" x="1500.5" y="584.5938"/><ellipse cx="1515.5" cy="600.5938" fill="#B4A7E5" rx="11" ry="11" style="stroke:#181818;stroke-width:1;"/><path d="M1511.4219,596.3594 L1511.4219,594.2031 L1518.8125,594.2031 L1518.8125,596.3594 L1516.3438,596.3594 L1516.3438,604.4375 L1518.8125,604.4375 L1518.8125,606.5938 L1511.4219,606.5938 L1511.4219,604.4375 L1513.8906,604.4375 L1513.8906,596.3594 L1511.4219,596.3594 Z " fill="#000000"/><text fill="#000000" font-family="sans-serif" font-size="12" font-style="italic" lengthAdjust="spacing" textLength="99.2754" x="1533.5" y="604.748">TerminationRule</text><line style="stroke:#444444;stroke-width:1;" x1="1501.5" x2="1638.7754" y1="616.5938" y2="616.5938"/><line style="stroke:#444444;stroke-width:1;" x1="1501.5" x2="1638.7754" y1="624.5938" y2="624.5938"/></g><!--class OutcomeRule--><g class="entity" data-qualified-name="Core Interfaces .reference..OutcomeRule" data-source-line="22" id="ent0004"><rect fill="#FFFFFF" height="48" rx="2.5" ry="2.5" style="stroke:#444444;stroke-width:1;" width="121.4277" x="1344.5" y="584.5938"/><ellipse cx="1359.5" cy="600.5938" fill="#B4A7E5" rx="11" ry="11" style="stroke:#181818;stroke-width:1;"/><path d="M1355.4219,596.3594 L1355.4219,594.2031 L1362.8125,594.2031 L1362.8125,596.3594 L1360.3438,596.3594 L1360.3438,604.4375 L1362.8125,604.4375 L1362.8125,606.5938 L1355.4219,606.5938 L1355.4219,604.4375 L1357.8906,604.4375 L1357.8906,596.3594 L1355.4219,596.3594 Z " fill="#000000"/><text fill="#000000" font-family="sans-serif" font-size="12" font-style="italic" lengthAdjust="spacing" textLength="81.4277" x="1377.5" y="604.748">OutcomeRule</text><line style="stroke:#444444;stroke-width:1;" x1="1345.5" x2="1464.9277" y1="616.5938" y2="616.5938"/><line style="stroke:#444444;stroke-width:1;" x1="1345.5" x2="1464.9277" y1="624.5938" y2="624.5938"/></g><!--class ScoringRule--><g class="entity" data-qualified-name="Core Interfaces .reference..ScoringRule" data-source-line="23" id="ent0005"><rect fill="#FFFFFF" height="48" rx="2.5" ry="2.5" style="stroke:#444444;stroke-width:1;" width="111.707" x="1675" y="584.5938"/><ellipse cx="1690" cy="600.5938" fill="#B4A7E5" rx="11" ry="11" style="stroke:#181818;stroke-width:1;"/><path d="M1685.9219,596.3594 L1685.9219,594.2031 L1693.3125,594.2031 L1693.3125,596.3594 L1690.8438,596.3594 L1690.8438,604.4375 L1693.3125,604.4375 L1693.3125,606.5938 L1685.9219,606.5938 L1685.9219,604.4375 L1688.3906,604.4375 L1688.3906,596.3594 L1685.9219,596.3594 Z " fill="#000000"/><text fill="#000000" font-family="sans-serif" font-size="12" font-style="italic" lengthAdjust="spacing" textLength="71.707" x="1708" y="604.748">ScoringRule</text><line style="stroke:#444444;stroke-width:1;" x1="1676" x2="1785.707" y1="616.5938" y2="616.5938"/><line style="stroke:#444444;stroke-width:1;" x1="1676" x2="1785.707" y1="624.5938" y2="624.5938"/></g><!--class FixtureGenerator--><g class="entity" data-qualified-name="Core Interfaces .reference..FixtureGenerator" data-source-line="24" id="ent0006"><rect fill="#FFFFFF" height="48" rx="2.5" ry="2.5" style="stroke:#444444;stroke-width:1;" width="142.9023" x="1822.5" y="584.5938"/><ellipse cx="1837.5" cy="600.5938" fill="#B4A7E5" rx="11" ry="11" style="stroke:#181818;stroke-width:1;"/><path d="M1833.4219,596.3594 L1833.4219,594.2031 L1840.8125,594.2031 L1840.8125,596.3594 L1838.3438,596.3594 L1838.3438,604.4375 L1840.8125,604.4375 L1840.8125,606.5938 L1833.4219,606.5938 L1833.4219,604.4375 L1835.8906,604.4375 L1835.8906,596.3594 L1833.4219,596.3594 Z " fill="#000000"/><text fill="#000000" font-family="sans-serif" font-size="12" font-style="italic" lengthAdjust="spacing" textLength="102.9023" x="1855.5" y="604.748">FixtureGenerator</text><line style="stroke:#444444;stroke-width:1;" x1="1823.5" x2="1964.4023" y1="616.5938" y2="616.5938"/><line style="stroke:#444444;stroke-width:1;" x1="1823.5" x2="1964.4023" y1="624.5938" y2="624.5938"/></g><!--class StandingsAggregator--><g class="entity" data-qualified-name="Core Interfaces .reference..StandingsAggregator" data-source-line="25" id="ent0007"><rect fill="#FFFFFF" height="48" rx="2.5" ry="2.5" style="stroke:#444444;stroke-width:1;" width="167.418" x="2000.5" y="584.5938"/><ellipse cx="2015.5" cy="600.5938" fill="#B4A7E5" rx="11" ry="11" style="stroke:#181818;stroke-width:1;"/><path d="M2011.4219,596.3594 L2011.4219,594.2031 L2018.8125,594.2031 L2018.8125,596.3594 L2016.3438,596.3594 L2016.3438,604.4375 L2018.8125,604.4375 L2018.8125,606.5938 L2011.4219,606.5938 L2011.4219,604.4375 L2013.8906,604.4375 L2013.8906,596.3594 L2011.4219,596.3594 Z " fill="#000000"/><text fill="#000000" font-family="sans-serif" font-size="12" font-style="italic" lengthAdjust="spacing" textLength="127.418" x="2033.5" y="604.748">StandingsAggregator</text><line style="stroke:#444444;stroke-width:1;" x1="2001.5" x2="2166.918" y1="616.5938" y2="616.5938"/><line style="stroke:#444444;stroke-width:1;" x1="2001.5" x2="2166.918" y1="624.5938" y2="624.5938"/></g><!--class Tiebreak--><g class="entity" data-qualified-name="Core Interfaces .reference..Tiebreak" data-source-line="26" id="ent0008"><rect fill="#FFFFFF" height="48" rx="2.5" ry="2.5" style="stroke:#444444;stroke-width:1;" width="92.2832" x="1110" y="584.5938"/><ellipse cx="1125" cy="600.5938" fill="#B4A7E5" rx="11" ry="11" style="stroke:#181818;stroke-width:1;"/><path d="M1120.9219,596.3594 L1120.9219,594.2031 L1128.3125,594.2031 L1128.3125,596.3594 L1125.8438,596.3594 L1125.8438,604.4375 L1128.3125,604.4375 L1128.3125,606.5938 L1120.9219,606.5938 L1120.9219,604.4375 L1123.3906,604.4375 L1123.3906,596.3594 L1120.9219,596.3594 Z " fill="#000000"/><text fill="#000000" font-family="sans-serif" font-size="12" font-style="italic" lengthAdjust="spacing" textLength="52.2832" x="1143" y="604.748">Tiebreak</text><line style="stroke:#444444;stroke-width:1;" x1="1111" x2="1201.2832" y1="616.5938" y2="616.5938"/><line style="stroke:#444444;stroke-width:1;" x1="1111" x2="1201.2832" y1="624.5938" y2="624.5938"/></g><!--class Sport--><g class="entity" data-qualified-name="Core Interfaces .reference..Sport" data-source-line="27" id="ent0009"><rect fill="#FFFFFF" height="48" rx="2.5" ry="2.5" style="stroke:#444444;stroke-width:1;" width="72.2148" x="1237" y="584.5938"/><ellipse cx="1252" cy="600.5938" fill="#ADD1B2" rx="11" ry="11" style="stroke:#181818;stroke-width:1;"/><path d="M1254.9688,606.2344 Q1254.3906,606.5313 1253.75,606.6719 Q1253.1094,606.8281 1252.4063,606.8281 Q1249.9063,606.8281 1248.5781,605.1875 Q1247.2656,603.5313 1247.2656,600.4063 Q1247.2656,597.2813 1248.5781,595.625 Q1249.9063,593.9688 1252.4063,593.9688 Q1253.1094,593.9688 1253.75,594.125 Q1254.4063,594.2813 1254.9688,594.5781 L1254.9688,597.2969 Q1254.3438,596.7188 1253.75,596.4531 Q1253.1563,596.1719 1252.5313,596.1719 Q1251.1875,596.1719 1250.5,597.25 Q1249.8125,598.3125 1249.8125,600.4063 Q1249.8125,602.5 1250.5,603.5781 Q1251.1875,604.6406 1252.5313,604.6406 Q1253.1563,604.6406 1253.75,604.375 Q1254.3438,604.0938 1254.9688,603.5156 L1254.9688,606.2344 Z " fill="#000000"/><text fill="#000000" font-family="sans-serif" font-size="12" lengthAdjust="spacing" textLength="32.2148" x="1270" y="604.748">Sport</text><line style="stroke:#444444;stroke-width:1;" x1="1238" x2="1308.2148" y1="616.5938" y2="616.5938"/><line style="stroke:#444444;stroke-width:1;" x1="1238" x2="1308.2148" y1="624.5938" y2="624.5938"/></g><!--class FootballSport--><g class="entity" data-qualified-name="Football Module.FootballSport" data-source-line="33" id="ent0011"><rect fill="#FFFFFF" height="120.8906" rx="2.5" ry="2.5" style="stroke:#444444;stroke-width:1;" width="312.0996" x="592" y="187.5938"/><ellipse cx="699.7275" cy="203.5938" fill="#ADD1B2" rx="11" ry="11" style="stroke:#181818;stroke-width:1;"/><path d="M702.6963,209.2344 Q702.1182,209.5313 701.4775,209.6719 Q700.8369,209.8281 700.1338,209.8281 Q697.6338,209.8281 696.3057,208.1875 Q694.9932,206.5313 694.9932,203.4063 Q694.9932,200.2813 696.3057,198.625 Q697.6338,196.9688 700.1338,196.9688 Q700.8369,196.9688 701.4775,197.125 Q702.1338,197.2813 702.6963,197.5781 L702.6963,200.2969 Q702.0713,199.7188 701.4775,199.4531 Q700.8838,199.1719 700.2588,199.1719 Q698.915,199.1719 698.2275,200.25 Q697.54,201.3125 697.54,203.4063 Q697.54,205.5 698.2275,206.5781 Q698.915,207.6406 700.2588,207.6406 Q700.8838,207.6406 701.4775,207.375 Q702.0713,207.0938 702.6963,206.5156 L702.6963,209.2344 Z " fill="#000000"/><text fill="#000000" font-family="sans-serif" font-size="12" lengthAdjust="spacing" textLength="80.1445" x="724.2275" y="207.748">FootballSport</text><line style="stroke:#444444;stroke-width:1;" x1="593" x2="903.0996" y1="219.5938" y2="219.5938"/><text fill="#000000" font-family="sans-serif" font-size="14" lengthAdjust="spacing" textLength="225.0254" x="602" y="240.5889">+name = "Association Football"</text><text fill="#000000" font-family="sans-serif" font-size="14" lengthAdjust="spacing" textLength="235.0605" x="602" y="264.8857">+allowedRoles = {HOME, AWAY}</text><text fill="#000000" font-family="sans-serif" font-size="14" lengthAdjust="spacing" textLength="292.0996" x="602" y="289.1826">+defaultCapabilities = {EventRecording}</text><line style="stroke:#444444;stroke-width:1;" x1="593" x2="903.0996" y1="300.4844" y2="300.4844"/></g><!--class TimeLimit--><g class="entity" data-qualified-name="Football Module.TimeLimit" data-source-line="41" id="ent0012"><rect fill="#FFFFFF" height="145.1875" rx="2.5" ry="2.5" style="stroke:#444444;stroke-width:1;" width="230.0273" x="939" y="175.5938"/><ellipse cx="1016.0215" cy="191.5938" fill="#ADD1B2" rx="11" ry="11" style="stroke:#181818;stroke-width:1;"/><path d="M1018.9902,197.2344 Q1018.4121,197.5313 1017.7715,197.6719 Q1017.1309,197.8281 1016.4277,197.8281 Q1013.9277,197.8281 1012.5996,196.1875 Q1011.2871,194.5313 1011.2871,191.4063 Q1011.2871,188.2813 1012.5996,186.625 Q1013.9277,184.9688 1016.4277,184.9688 Q1017.1309,184.9688 1017.7715,185.125 Q1018.4277,185.2813 1018.9902,185.5781 L1018.9902,188.2969 Q1018.3652,187.7188 1017.7715,187.4531 Q1017.1777,187.1719 1016.5527,187.1719 Q1015.209,187.1719 1014.5215,188.25 Q1013.834,189.3125 1013.834,191.4063 Q1013.834,193.5 1014.5215,194.5781 Q1015.209,195.6406 1016.5527,195.6406 Q1017.1777,195.6406 1017.7715,195.375 Q1018.3652,195.0938 1018.9902,194.5156 L1018.9902,197.2344 Z " fill="#000000"/><text fill="#000000" font-family="sans-serif" font-size="12" lengthAdjust="spacing" textLength="59.4844" x="1040.5215" y="195.748">TimeLimit</text><line style="stroke:#444444;stroke-width:1;" x1="940" x2="1168.0273" y1="207.5938" y2="207.5938"/><text fill="#000000" font-family="sans-serif" font-size="14" lengthAdjust="spacing" textLength="187.5098" x="949" y="228.5889">+regularMinutes : int = 90</text><text fill="#000000" font-family="sans-serif" font-size="14" lengthAdjust="spacing" textLength="143.4932" x="949" y="252.8857">+stoppageTime : int</text><text fill="#000000" font-family="sans-serif" font-size="14" lengthAdjust="spacing" textLength="210.0273" x="949" y="277.1826">+extraTimeEnabled : Boolean</text><line style="stroke:#444444;stroke-width:1;" x1="940" x2="1168.0273" y1="288.4844" y2="288.4844"/><text fill="#000000" font-family="sans-serif" font-size="14" lengthAdjust="spacing" textLength="204.374" x="949" y="309.4795">+isOver(c) : TerminationKind</text></g><!--class EventDerived--><g class="entity" data-qualified-name="Football Module.EventDerived" data-source-line="50" id="ent0013"><rect fill="#FFFFFF" height="72.2969" rx="2.5" ry="2.5" style="stroke:#444444;stroke-width:1;" width="186.168" x="371" y="212.0938"/><ellipse cx="415.1595" cy="228.0938" fill="#ADD1B2" rx="11" ry="11" style="stroke:#181818;stroke-width:1;"/><path d="M418.1282,233.7344 Q417.5501,234.0313 416.9095,234.1719 Q416.2688,234.3281 415.5657,234.3281 Q413.0657,234.3281 411.7376,232.6875 Q410.4251,231.0313 410.4251,227.9063 Q410.4251,224.7813 411.7376,223.125 Q413.0657,221.4688 415.5657,221.4688 Q416.2688,221.4688 416.9095,221.625 Q417.5657,221.7813 418.1282,222.0781 L418.1282,224.7969 Q417.5032,224.2188 416.9095,223.9531 Q416.3157,223.6719 415.6907,223.6719 Q414.347,223.6719 413.6595,224.75 Q412.972,225.8125 412.972,227.9063 Q412.972,230 413.6595,231.0781 Q414.347,232.1406 415.6907,232.1406 Q416.3157,232.1406 416.9095,231.875 Q417.5032,231.5938 418.1282,231.0156 L418.1282,233.7344 Z " fill="#000000"/><text fill="#000000" font-family="sans-serif" font-size="12" lengthAdjust="spacing" textLength="81.3691" x="439.6394" y="232.248">EventDerived</text><line style="stroke:#444444;stroke-width:1;" x1="372" x2="556.168" y1="244.0938" y2="244.0938"/><line style="stroke:#444444;stroke-width:1;" x1="372" x2="556.168" y1="252.0938" y2="252.0938"/><text fill="#000000" font-family="sans-serif" font-size="14" lengthAdjust="spacing" textLength="166.168" x="381" y="273.0889">+buildResult(c) : Result</text></g><!--class WinDrawLoss_3_1_0--><g class="entity" data-qualified-name="Football Module.WinDrawLoss_3_1_0" data-source-line="57" id="ent0014"><rect fill="#FFFFFF" height="72.2969" rx="2.5" ry="2.5" style="stroke:#444444;stroke-width:1;" width="173.2002" x="1204.5" y="212.0938"/><ellipse cx="1224.7282" cy="228.0938" fill="#ADD1B2" rx="11" ry="11" style="stroke:#181818;stroke-width:1;"/><path d="M1227.6969,233.7344 Q1227.1188,234.0313 1226.4782,234.1719 Q1225.8375,234.3281 1225.1344,234.3281 Q1222.6344,234.3281 1221.3063,232.6875 Q1219.9938,231.0313 1219.9938,227.9063 Q1219.9938,224.7813 1221.3063,223.125 Q1222.6344,221.4688 1225.1344,221.4688 Q1225.8375,221.4688 1226.4782,221.625 Q1227.1344,221.7813 1227.6969,222.0781 L1227.6969,224.7969 Q1227.0719,224.2188 1226.4782,223.9531 Q1225.8844,223.6719 1225.2594,223.6719 Q1223.9157,223.6719 1223.2282,224.75 Q1222.5407,225.8125 1222.5407,227.9063 Q1222.5407,230 1223.2282,231.0781 Q1223.9157,232.1406 1225.2594,232.1406 Q1225.8844,232.1406 1226.4782,231.875 Q1227.0719,231.5938 1227.6969,231.0156 L1227.6969,233.7344 Z " fill="#000000"/><text fill="#000000" font-family="sans-serif" font-size="12" lengthAdjust="spacing" textLength="121.582" x="1243.89" y="232.248">WinDrawLoss_3_1_0</text><line style="stroke:#444444;stroke-width:1;" x1="1205.5" x2="1376.7002" y1="244.0938" y2="244.0938"/><line style="stroke:#444444;stroke-width:1;" x1="1205.5" x2="1376.7002" y1="252.0938" y2="252.0938"/><text fill="#000000" font-family="sans-serif" font-size="14" lengthAdjust="spacing" textLength="153.2002" x="1214.5" y="273.0889">+points(sc) : Numeric</text></g><!--class RoundRobin--><g class="entity" data-qualified-name="Football Module.RoundRobin" data-source-line="62" id="ent0015"><rect fill="#FFFFFF" height="96.5938" rx="2.5" ry="2.5" style="stroke:#444444;stroke-width:1;" width="318.0879" x="1413" y="199.5938"/><ellipse cx="1527.4219" cy="215.5938" fill="#ADD1B2" rx="11" ry="11" style="stroke:#181818;stroke-width:1;"/><path d="M1530.3906,221.2344 Q1529.8125,221.5313 1529.1719,221.6719 Q1528.5313,221.8281 1527.8281,221.8281 Q1525.3281,221.8281 1524,220.1875 Q1522.6875,218.5313 1522.6875,215.4063 Q1522.6875,212.2813 1524,210.625 Q1525.3281,208.9688 1527.8281,208.9688 Q1528.5313,208.9688 1529.1719,209.125 Q1529.8281,209.2813 1530.3906,209.5781 L1530.3906,212.2969 Q1529.7656,211.7188 1529.1719,211.4531 Q1528.5781,211.1719 1527.9531,211.1719 Q1526.6094,211.1719 1525.9219,212.25 Q1525.2344,213.3125 1525.2344,215.4063 Q1525.2344,217.5 1525.9219,218.5781 Q1526.6094,219.6406 1527.9531,219.6406 Q1528.5781,219.6406 1529.1719,219.375 Q1529.7656,219.0938 1530.3906,218.5156 L1530.3906,221.2344 Z " fill="#000000"/><text fill="#000000" font-family="sans-serif" font-size="12" lengthAdjust="spacing" textLength="72.7441" x="1551.9219" y="219.748">RoundRobin</text><line style="stroke:#444444;stroke-width:1;" x1="1414" x2="1730.0879" y1="231.5938" y2="231.5938"/><text fill="#000000" font-family="sans-serif" font-size="14" lengthAdjust="spacing" textLength="236.3184" x="1423" y="252.5889">+homeAndAway : Boolean = true</text><line style="stroke:#444444;stroke-width:1;" x1="1414" x2="1730.0879" y1="263.8906" y2="263.8906"/><text fill="#000000" font-family="sans-serif" font-size="14" lengthAdjust="spacing" textLength="298.0879" x="1423" y="284.8857">+nextRound(competition) : List&lt;Contest&gt;</text></g><!--class PointsTable--><g class="entity" data-qualified-name="Football Module.PointsTable" data-source-line="70" id="ent0016"><rect fill="#FFFFFF" height="72.2969" rx="2.5" ry="2.5" style="stroke:#444444;stroke-width:1;" width="290.5527" x="1765.5" y="212.0938"/><ellipse cx="1867.7803" cy="228.0938" fill="#ADD1B2" rx="11" ry="11" style="stroke:#181818;stroke-width:1;"/><path d="M1870.749,233.7344 Q1870.1709,234.0313 1869.5303,234.1719 Q1868.8896,234.3281 1868.1865,234.3281 Q1865.6865,234.3281 1864.3584,232.6875 Q1863.0459,231.0313 1863.0459,227.9063 Q1863.0459,224.7813 1864.3584,223.125 Q1865.6865,221.4688 1868.1865,221.4688 Q1868.8896,221.4688 1869.5303,221.625 Q1870.1865,221.7813 1870.749,222.0781 L1870.749,224.7969 Q1870.124,224.2188 1869.5303,223.9531 Q1868.9365,223.6719 1868.3115,223.6719 Q1866.9678,223.6719 1866.2803,224.75 Q1865.5928,225.8125 1865.5928,227.9063 Q1865.5928,230 1866.2803,231.0781 Q1866.9678,232.1406 1868.3115,232.1406 Q1868.9365,232.1406 1869.5303,231.875 Q1870.124,231.5938 1870.749,231.0156 L1870.749,233.7344 Z " fill="#000000"/><text fill="#000000" font-family="sans-serif" font-size="12" lengthAdjust="spacing" textLength="69.4922" x="1892.2803" y="232.248">PointsTable</text><line style="stroke:#444444;stroke-width:1;" x1="1766.5" x2="2055.0527" y1="244.0938" y2="244.0938"/><line style="stroke:#444444;stroke-width:1;" x1="1766.5" x2="2055.0527" y1="252.0938" y2="252.0938"/><text fill="#000000" font-family="sans-serif" font-size="14" lengthAdjust="spacing" textLength="270.5527" x="1775.5" y="273.0889">+compute(competition) : Leaderboard</text></g><!--class GoalDifference--><g class="entity" data-qualified-name="Football Module.GoalDifference" data-source-line="76" id="ent0017"><rect fill="#FFFFFF" height="96.5938" rx="2.5" ry="2.5" style="stroke:#444444;stroke-width:1;" width="313.7813" x="22" y="199.5938"/><ellipse cx="125.8223" cy="215.5938" fill="#ADD1B2" rx="11" ry="11" style="stroke:#181818;stroke-width:1;"/><path d="M128.791,221.2344 Q128.2129,221.5313 127.5723,221.6719 Q126.9316,221.8281 126.2285,221.8281 Q123.7285,221.8281 122.4004,220.1875 Q121.0879,218.5313 121.0879,215.4063 Q121.0879,212.2813 122.4004,210.625 Q123.7285,208.9688 126.2285,208.9688 Q126.9316,208.9688 127.5723,209.125 Q128.2285,209.2813 128.791,209.5781 L128.791,212.2969 Q128.166,211.7188 127.5723,211.4531 Q126.9785,211.1719 126.3535,211.1719 Q125.0098,211.1719 124.3223,212.25 Q123.6348,213.3125 123.6348,215.4063 Q123.6348,217.5 124.3223,218.5781 Q125.0098,219.6406 126.3535,219.6406 Q126.9785,219.6406 127.5723,219.375 Q128.166,219.0938 128.791,218.5156 L128.791,221.2344 Z " fill="#000000"/><text fill="#000000" font-family="sans-serif" font-size="12" lengthAdjust="spacing" textLength="89.6367" x="150.3223" y="219.748">GoalDifference</text><line style="stroke:#444444;stroke-width:1;" x1="23" x2="334.7813" y1="231.5938" y2="231.5938"/><text fill="#000000" font-family="sans-serif" font-size="14" lengthAdjust="spacing" textLength="117.6055" x="32" y="252.5889">+next : Tiebreak</text><line style="stroke:#444444;stroke-width:1;" x1="23" x2="334.7813" y1="263.8906" y2="263.8906"/><text fill="#000000" font-family="sans-serif" font-size="14" lengthAdjust="spacing" textLength="293.7813" x="32" y="284.8857">+resolve(tied, results) : List&lt;Participant&gt;</text></g><!--class HeadToHead_Football--><g class="entity" data-qualified-name="Football Module.HeadToHead_Football" data-source-line="83" id="ent0018"><rect fill="#FFFFFF" height="96.5938" rx="2.5" ry="2.5" style="stroke:#444444;stroke-width:1;" width="313.7813" x="26" y="392.5938"/><ellipse cx="108.9629" cy="408.5938" fill="#ADD1B2" rx="11" ry="11" style="stroke:#181818;stroke-width:1;"/><path d="M111.9316,414.2344 Q111.3535,414.5313 110.7129,414.6719 Q110.0723,414.8281 109.3691,414.8281 Q106.8691,414.8281 105.541,413.1875 Q104.2285,411.5313 104.2285,408.4063 Q104.2285,405.2813 105.541,403.625 Q106.8691,401.9688 109.3691,401.9688 Q110.0723,401.9688 110.7129,402.125 Q111.3691,402.2813 111.9316,402.5781 L111.9316,405.2969 Q111.3066,404.7188 110.7129,404.4531 Q110.1191,404.1719 109.4941,404.1719 Q108.1504,404.1719 107.4629,405.25 Q106.7754,406.3125 106.7754,408.4063 Q106.7754,410.5 107.4629,411.5781 Q108.1504,412.6406 109.4941,412.6406 Q110.1191,412.6406 110.7129,412.375 Q111.3066,412.0938 111.9316,411.5156 L111.9316,414.2344 Z " fill="#000000"/><text fill="#000000" font-family="sans-serif" font-size="12" lengthAdjust="spacing" textLength="131.3555" x="133.4629" y="412.748">HeadToHead_Football</text><line style="stroke:#444444;stroke-width:1;" x1="27" x2="338.7813" y1="424.5938" y2="424.5938"/><text fill="#000000" font-family="sans-serif" font-size="14" lengthAdjust="spacing" textLength="117.6055" x="36" y="445.5889">+next : Tiebreak</text><line style="stroke:#444444;stroke-width:1;" x1="27" x2="338.7813" y1="456.8906" y2="456.8906"/><text fill="#000000" font-family="sans-serif" font-size="14" lengthAdjust="spacing" textLength="293.7813" x="36" y="477.8857">+resolve(tied, results) : List&lt;Participant&gt;</text></g><!--class ContestEvent--><g class="entity" data-qualified-name="Football Module.ContestEvent" data-source-line="89" id="ent0019"><rect fill="#FFFFFF" height="120.8906" rx="2.5" ry="2.5" style="stroke:#444444;stroke-width:1;" width="169.7822" x="379" y="380.5938"/><ellipse cx="416.0654" cy="396.5938" fill="#ADD1B2" rx="11" ry="11" style="stroke:#181818;stroke-width:1;"/><path d="M419.0341,402.2344 Q418.456,402.5313 417.8154,402.6719 Q417.1748,402.8281 416.4716,402.8281 Q413.9716,402.8281 412.6435,401.1875 Q411.331,399.5313 411.331,396.4063 Q411.331,393.2813 412.6435,391.625 Q413.9716,389.9688 416.4716,389.9688 Q417.1748,389.9688 417.8154,390.125 Q418.4716,390.2813 419.0341,390.5781 L419.0341,393.2969 Q418.4091,392.7188 417.8154,392.4531 Q417.2216,392.1719 416.5966,392.1719 Q415.2529,392.1719 414.5654,393.25 Q413.8779,394.3125 413.8779,396.4063 Q413.8779,398.5 414.5654,399.5781 Q415.2529,400.6406 416.5966,400.6406 Q417.2216,400.6406 417.8154,400.375 Q418.4091,400.0938 419.0341,399.5156 L419.0341,402.2344 Z " fill="#000000"/><text fill="#000000" font-family="sans-serif" font-size="12" lengthAdjust="spacing" textLength="80.748" x="438.9688" y="400.748">ContestEvent</text><line style="stroke:#444444;stroke-width:1;" x1="380" x2="547.7822" y1="412.5938" y2="412.5938"/><text fill="#000000" font-family="sans-serif" font-size="14" lengthAdjust="spacing" textLength="126.041" x="389" y="433.5889">+kind : EventKind</text><text fill="#000000" font-family="sans-serif" font-size="14" lengthAdjust="spacing" textLength="92.9756" x="389" y="457.8857">+minute : int</text><text fill="#000000" font-family="sans-serif" font-size="14" lengthAdjust="spacing" textLength="149.7822" x="389" y="482.1826">+participantId : UUID</text><line style="stroke:#444444;stroke-width:1;" x1="380" x2="547.7822" y1="493.4844" y2="493.4844"/></g><!--class ChessSport--><g class="entity" data-qualified-name="Chess Module.ChessSport" data-source-line="101" id="ent0021"><rect fill="#FFFFFF" height="120.8906" rx="2.5" ry="2.5" style="stroke:#444444;stroke-width:1;" width="263.8926" x="2673" y="187.5938"/><ellipse cx="2762.6533" cy="203.5938" fill="#ADD1B2" rx="11" ry="11" style="stroke:#181818;stroke-width:1;"/><path d="M2765.6221,209.2344 Q2765.0439,209.5313 2764.4033,209.6719 Q2763.7627,209.8281 2763.0596,209.8281 Q2760.5596,209.8281 2759.2314,208.1875 Q2757.9189,206.5313 2757.9189,203.4063 Q2757.9189,200.2813 2759.2314,198.625 Q2760.5596,196.9688 2763.0596,196.9688 Q2763.7627,196.9688 2764.4033,197.125 Q2765.0596,197.2813 2765.6221,197.5781 L2765.6221,200.2969 Q2764.9971,199.7188 2764.4033,199.4531 Q2763.8096,199.1719 2763.1846,199.1719 Q2761.8408,199.1719 2761.1533,200.25 Q2760.4658,201.3125 2760.4658,203.4063 Q2760.4658,205.5 2761.1533,206.5781 Q2761.8408,207.6406 2763.1846,207.6406 Q2763.8096,207.6406 2764.4033,207.375 Q2764.9971,207.0938 2765.6221,206.5156 L2765.6221,209.2344 Z " fill="#000000"/><text fill="#000000" font-family="sans-serif" font-size="12" lengthAdjust="spacing" textLength="68.0859" x="2787.1533" y="207.748">ChessSport</text><line style="stroke:#444444;stroke-width:1;" x1="2674" x2="2935.8926" y1="219.5938" y2="219.5938"/><text fill="#000000" font-family="sans-serif" font-size="14" lengthAdjust="spacing" textLength="126.793" x="2683" y="240.5889">+name = "Chess"</text><text fill="#000000" font-family="sans-serif" font-size="14" lengthAdjust="spacing" textLength="242.874" x="2683" y="264.8857">+allowedRoles = {WHITE, BLACK}</text><text fill="#000000" font-family="sans-serif" font-size="14" lengthAdjust="spacing" textLength="243.8926" x="2683" y="289.1826">+defaultCapabilities = {MoveLog}</text><line style="stroke:#444444;stroke-width:1;" x1="2674" x2="2935.8926" y1="300.4844" y2="300.4844"/></g><!--class TerminalCondition--><g class="entity" data-qualified-name="Chess Module.TerminalCondition" data-source-line="109" id="ent0022"><rect fill="#FFFFFF" height="72.2969" rx="2.5" ry="2.5" style="stroke:#444444;stroke-width:1;" width="224.374" x="3193" y="212.0938"/><ellipse cx="3241.8237" cy="228.0938" fill="#ADD1B2" rx="11" ry="11" style="stroke:#181818;stroke-width:1;"/><path d="M3244.7925,233.7344 Q3244.2144,234.0313 3243.5737,234.1719 Q3242.9331,234.3281 3242.23,234.3281 Q3239.73,234.3281 3238.4019,232.6875 Q3237.0894,231.0313 3237.0894,227.9063 Q3237.0894,224.7813 3238.4019,223.125 Q3239.73,221.4688 3242.23,221.4688 Q3242.9331,221.4688 3243.5737,221.625 Q3244.23,221.7813 3244.7925,222.0781 L3244.7925,224.7969 Q3244.1675,224.2188 3243.5737,223.9531 Q3242.98,223.6719 3242.355,223.6719 Q3241.0112,223.6719 3240.3237,224.75 Q3239.6362,225.8125 3239.6362,227.9063 Q3239.6362,230 3240.3237,231.0781 Q3241.0112,232.1406 3242.355,232.1406 Q3242.98,232.1406 3243.5737,231.875 Q3244.1675,231.5938 3244.7925,231.0156 L3244.7925,233.7344 Z " fill="#000000"/><text fill="#000000" font-family="sans-serif" font-size="12" lengthAdjust="spacing" textLength="110.2266" x="3266.3237" y="232.248">TerminalCondition</text><line style="stroke:#444444;stroke-width:1;" x1="3194" x2="3416.374" y1="244.0938" y2="244.0938"/><line style="stroke:#444444;stroke-width:1;" x1="3194" x2="3416.374" y1="252.0938" y2="252.0938"/><text fill="#000000" font-family="sans-serif" font-size="14" lengthAdjust="spacing" textLength="204.374" x="3203" y="273.0889">+isOver(c) : TerminationKind</text></g><!--class Declared--><g class="entity" data-qualified-name="Chess Module.Declared" data-source-line="117" id="ent0023"><rect fill="#FFFFFF" height="72.2969" rx="2.5" ry="2.5" style="stroke:#444444;stroke-width:1;" width="186.168" x="2972" y="212.0938"/><ellipse cx="3029.9131" cy="228.0938" fill="#ADD1B2" rx="11" ry="11" style="stroke:#181818;stroke-width:1;"/><path d="M3032.8818,233.7344 Q3032.3037,234.0313 3031.6631,234.1719 Q3031.0225,234.3281 3030.3193,234.3281 Q3027.8193,234.3281 3026.4912,232.6875 Q3025.1787,231.0313 3025.1787,227.9063 Q3025.1787,224.7813 3026.4912,223.125 Q3027.8193,221.4688 3030.3193,221.4688 Q3031.0225,221.4688 3031.6631,221.625 Q3032.3193,221.7813 3032.8818,222.0781 L3032.8818,224.7969 Q3032.2568,224.2188 3031.6631,223.9531 Q3031.0693,223.6719 3030.4443,223.6719 Q3029.1006,223.6719 3028.4131,224.75 Q3027.7256,225.8125 3027.7256,227.9063 Q3027.7256,230 3028.4131,231.0781 Q3029.1006,232.1406 3030.4443,232.1406 Q3031.0693,232.1406 3031.6631,231.875 Q3032.2568,231.5938 3032.8818,231.0156 L3032.8818,233.7344 Z " fill="#000000"/><text fill="#000000" font-family="sans-serif" font-size="12" lengthAdjust="spacing" textLength="53.8418" x="3054.4131" y="232.248">Declared</text><line style="stroke:#444444;stroke-width:1;" x1="2973" x2="3157.168" y1="244.0938" y2="244.0938"/><line style="stroke:#444444;stroke-width:1;" x1="2973" x2="3157.168" y1="252.0938" y2="252.0938"/><text fill="#000000" font-family="sans-serif" font-size="14" lengthAdjust="spacing" textLength="166.168" x="2982" y="273.0889">+buildResult(c) : Result</text></g><!--class WinDrawLoss_1_0p5_0--><g class="entity" data-qualified-name="Chess Module.WinDrawLoss_1_0p5_0" data-source-line="125" id="ent0024"><rect fill="#FFFFFF" height="72.2969" rx="2.5" ry="2.5" style="stroke:#444444;stroke-width:1;" width="176.834" x="3452.5" y="212.0938"/><ellipse cx="3467.5" cy="228.0938" fill="#ADD1B2" rx="11" ry="11" style="stroke:#181818;stroke-width:1;"/><path d="M3470.4688,233.7344 Q3469.8906,234.0313 3469.25,234.1719 Q3468.6094,234.3281 3467.9063,234.3281 Q3465.4063,234.3281 3464.0781,232.6875 Q3462.7656,231.0313 3462.7656,227.9063 Q3462.7656,224.7813 3464.0781,223.125 Q3465.4063,221.4688 3467.9063,221.4688 Q3468.6094,221.4688 3469.25,221.625 Q3469.9063,221.7813 3470.4688,222.0781 L3470.4688,224.7969 Q3469.8438,224.2188 3469.25,223.9531 Q3468.6563,223.6719 3468.0313,223.6719 Q3466.6875,223.6719 3466,224.75 Q3465.3125,225.8125 3465.3125,227.9063 Q3465.3125,230 3466,231.0781 Q3466.6875,232.1406 3468.0313,232.1406 Q3468.6563,232.1406 3469.25,231.875 Q3469.8438,231.5938 3470.4688,231.0156 L3470.4688,233.7344 Z " fill="#000000"/><text fill="#000000" font-family="sans-serif" font-size="12" lengthAdjust="spacing" textLength="136.834" x="3485.5" y="232.248">WinDrawLoss_1_0p5_0</text><line style="stroke:#444444;stroke-width:1;" x1="3453.5" x2="3628.334" y1="244.0938" y2="244.0938"/><line style="stroke:#444444;stroke-width:1;" x1="3453.5" x2="3628.334" y1="252.0938" y2="252.0938"/><text fill="#000000" font-family="sans-serif" font-size="14" lengthAdjust="spacing" textLength="153.2002" x="3462.5" y="273.0889">+points(sc) : Numeric</text></g><!--class SwissPairing--><g class="entity" data-qualified-name="Chess Module.SwissPairing" data-source-line="130" id="ent0025"><rect fill="#FFFFFF" height="96.5938" rx="2.5" ry="2.5" style="stroke:#444444;stroke-width:1;" width="318.0879" x="3664" y="199.5938"/><ellipse cx="3777.4521" cy="215.5938" fill="#ADD1B2" rx="11" ry="11" style="stroke:#181818;stroke-width:1;"/><path d="M3780.4209,221.2344 Q3779.8428,221.5313 3779.2021,221.6719 Q3778.5615,221.8281 3777.8584,221.8281 Q3775.3584,221.8281 3774.0303,220.1875 Q3772.7178,218.5313 3772.7178,215.4063 Q3772.7178,212.2813 3774.0303,210.625 Q3775.3584,208.9688 3777.8584,208.9688 Q3778.5615,208.9688 3779.2021,209.125 Q3779.8584,209.2813 3780.4209,209.5781 L3780.4209,212.2969 Q3779.7959,211.7188 3779.2021,211.4531 Q3778.6084,211.1719 3777.9834,211.1719 Q3776.6396,211.1719 3775.9521,212.25 Q3775.2646,213.3125 3775.2646,215.4063 Q3775.2646,217.5 3775.9521,218.5781 Q3776.6396,219.6406 3777.9834,219.6406 Q3778.6084,219.6406 3779.2021,219.375 Q3779.7959,219.0938 3780.4209,218.5156 L3780.4209,221.2344 Z " fill="#000000"/><text fill="#000000" font-family="sans-serif" font-size="12" lengthAdjust="spacing" textLength="74.6836" x="3801.9521" y="219.748">SwissPairing</text><line style="stroke:#444444;stroke-width:1;" x1="3665" x2="3981.0879" y1="231.5938" y2="231.5938"/><text fill="#000000" font-family="sans-serif" font-size="14" lengthAdjust="spacing" textLength="248.1309" x="3674" y="252.5889">+avoidRematches : Boolean = true</text><line style="stroke:#444444;stroke-width:1;" x1="3665" x2="3981.0879" y1="263.8906" y2="263.8906"/><text fill="#000000" font-family="sans-serif" font-size="14" lengthAdjust="spacing" textLength="298.0879" x="3674" y="284.8857">+nextRound(competition) : List&lt;Contest&gt;</text></g><!--class PointsTable_Chess--><g class="entity" data-qualified-name="Chess Module.PointsTable_Chess" data-source-line="139" id="ent0026"><rect fill="#FFFFFF" height="72.2969" rx="2.5" ry="2.5" style="stroke:#444444;stroke-width:1;" width="290.5527" x="4016.5" y="212.0938"/><ellipse cx="4097.8447" cy="228.0938" fill="#ADD1B2" rx="11" ry="11" style="stroke:#181818;stroke-width:1;"/><path d="M4100.8135,233.7344 Q4100.2354,234.0313 4099.5947,234.1719 Q4098.9541,234.3281 4098.251,234.3281 Q4095.751,234.3281 4094.4229,232.6875 Q4093.1104,231.0313 4093.1104,227.9063 Q4093.1104,224.7813 4094.4229,223.125 Q4095.751,221.4688 4098.251,221.4688 Q4098.9541,221.4688 4099.5947,221.625 Q4100.251,221.7813 4100.8135,222.0781 L4100.8135,224.7969 Q4100.1885,224.2188 4099.5947,223.9531 Q4099.001,223.6719 4098.376,223.6719 Q4097.0322,223.6719 4096.3447,224.75 Q4095.6572,225.8125 4095.6572,227.9063 Q4095.6572,230 4096.3447,231.0781 Q4097.0322,232.1406 4098.376,232.1406 Q4099.001,232.1406 4099.5947,231.875 Q4100.1885,231.5938 4100.8135,231.0156 L4100.8135,233.7344 Z " fill="#000000"/><text fill="#000000" font-family="sans-serif" font-size="12" lengthAdjust="spacing" textLength="111.3633" x="4122.3447" y="232.248">PointsTable_Chess</text><line style="stroke:#444444;stroke-width:1;" x1="4017.5" x2="4306.0527" y1="244.0938" y2="244.0938"/><line style="stroke:#444444;stroke-width:1;" x1="4017.5" x2="4306.0527" y1="252.0938" y2="252.0938"/><text fill="#000000" font-family="sans-serif" font-size="14" lengthAdjust="spacing" textLength="270.5527" x="4026.5" y="273.0889">+compute(competition) : Leaderboard</text></g><!--class Buchholz--><g class="entity" data-qualified-name="Chess Module.Buchholz" data-source-line="145" id="ent0027"><rect fill="#FFFFFF" height="96.5938" rx="2.5" ry="2.5" style="stroke:#444444;stroke-width:1;" width="313.7813" x="2324" y="199.5938"/><ellipse cx="2445.3301" cy="215.5938" fill="#ADD1B2" rx="11" ry="11" style="stroke:#181818;stroke-width:1;"/><path d="M2448.2988,221.2344 Q2447.7207,221.5313 2447.0801,221.6719 Q2446.4395,221.8281 2445.7363,221.8281 Q2443.2363,221.8281 2441.9082,220.1875 Q2440.5957,218.5313 2440.5957,215.4063 Q2440.5957,212.2813 2441.9082,210.625 Q2443.2363,208.9688 2445.7363,208.9688 Q2446.4395,208.9688 2447.0801,209.125 Q2447.7363,209.2813 2448.2988,209.5781 L2448.2988,212.2969 Q2447.6738,211.7188 2447.0801,211.4531 Q2446.4863,211.1719 2445.8613,211.1719 Q2444.5176,211.1719 2443.8301,212.25 Q2443.1426,213.3125 2443.1426,215.4063 Q2443.1426,217.5 2443.8301,218.5781 Q2444.5176,219.6406 2445.8613,219.6406 Q2446.4863,219.6406 2447.0801,219.375 Q2447.6738,219.0938 2448.2988,218.5156 L2448.2988,221.2344 Z " fill="#000000"/><text fill="#000000" font-family="sans-serif" font-size="12" lengthAdjust="spacing" textLength="54.6211" x="2469.8301" y="219.748">Buchholz</text><line style="stroke:#444444;stroke-width:1;" x1="2325" x2="2636.7813" y1="231.5938" y2="231.5938"/><text fill="#000000" font-family="sans-serif" font-size="14" lengthAdjust="spacing" textLength="117.6055" x="2334" y="252.5889">+next : Tiebreak</text><line style="stroke:#444444;stroke-width:1;" x1="2325" x2="2636.7813" y1="263.8906" y2="263.8906"/><text fill="#000000" font-family="sans-serif" font-size="14" lengthAdjust="spacing" textLength="293.7813" x="2334" y="284.8857">+resolve(tied, results) : List&lt;Participant&gt;</text></g><!--class SonnebornBerger--><g class="entity" data-qualified-name="Chess Module.SonnebornBerger" data-source-line="151" id="ent0028"><rect fill="#FFFFFF" height="96.5938" rx="2.5" ry="2.5" style="stroke:#444444;stroke-width:1;" width="313.7813" x="2113" y="392.5938"/><ellipse cx="2208.874" cy="408.5938" fill="#ADD1B2" rx="11" ry="11" style="stroke:#181818;stroke-width:1;"/><path d="M2211.8428,414.2344 Q2211.2646,414.5313 2210.624,414.6719 Q2209.9834,414.8281 2209.2803,414.8281 Q2206.7803,414.8281 2205.4521,413.1875 Q2204.1396,411.5313 2204.1396,408.4063 Q2204.1396,405.2813 2205.4521,403.625 Q2206.7803,401.9688 2209.2803,401.9688 Q2209.9834,401.9688 2210.624,402.125 Q2211.2803,402.2813 2211.8428,402.5781 L2211.8428,405.2969 Q2211.2178,404.7188 2210.624,404.4531 Q2210.0303,404.1719 2209.4053,404.1719 Q2208.0615,404.1719 2207.374,405.25 Q2206.6865,406.3125 2206.6865,408.4063 Q2206.6865,410.5 2207.374,411.5781 Q2208.0615,412.6406 2209.4053,412.6406 Q2210.0303,412.6406 2210.624,412.375 Q2211.2178,412.0938 2211.8428,411.5156 L2211.8428,414.2344 Z " fill="#000000"/><text fill="#000000" font-family="sans-serif" font-size="12" lengthAdjust="spacing" textLength="105.5332" x="2233.374" y="412.748">SonnebornBerger</text><line style="stroke:#444444;stroke-width:1;" x1="2114" x2="2425.7813" y1="424.5938" y2="424.5938"/><text fill="#000000" font-family="sans-serif" font-size="14" lengthAdjust="spacing" textLength="117.6055" x="2123" y="445.5889">+next : Tiebreak</text><line style="stroke:#444444;stroke-width:1;" x1="2114" x2="2425.7813" y1="456.8906" y2="456.8906"/><text fill="#000000" font-family="sans-serif" font-size="14" lengthAdjust="spacing" textLength="293.7813" x="2123" y="477.8857">+resolve(tied, results) : List&lt;Participant&gt;</text></g><!--class MoveLog--><g class="entity" data-qualified-name="Chess Module.MoveLog" data-source-line="157" id="ent0029"><rect fill="#FFFFFF" height="72.2969" rx="2.5" ry="2.5" style="stroke:#444444;stroke-width:1;" width="177.2197" x="2111.5" y="212.0938"/><ellipse cx="2164.9478" cy="228.0938" fill="#ADD1B2" rx="11" ry="11" style="stroke:#181818;stroke-width:1;"/><path d="M2167.9165,233.7344 Q2167.3384,234.0313 2166.6978,234.1719 Q2166.0571,234.3281 2165.354,234.3281 Q2162.854,234.3281 2161.5259,232.6875 Q2160.2134,231.0313 2160.2134,227.9063 Q2160.2134,224.7813 2161.5259,223.125 Q2162.854,221.4688 2165.354,221.4688 Q2166.0571,221.4688 2166.6978,221.625 Q2167.354,221.7813 2167.9165,222.0781 L2167.9165,224.7969 Q2167.2915,224.2188 2166.6978,223.9531 Q2166.104,223.6719 2165.479,223.6719 Q2164.1353,223.6719 2163.4478,224.75 Q2162.7603,225.8125 2162.7603,227.9063 Q2162.7603,230 2163.4478,231.0781 Q2164.1353,232.1406 2165.479,232.1406 Q2166.104,232.1406 2166.6978,231.875 Q2167.2915,231.5938 2167.9165,231.0156 L2167.9165,233.7344 Z " fill="#000000"/><text fill="#000000" font-family="sans-serif" font-size="12" lengthAdjust="spacing" textLength="53.8242" x="2189.4478" y="232.248">MoveLog</text><line style="stroke:#444444;stroke-width:1;" x1="2112.5" x2="2287.7197" y1="244.0938" y2="244.0938"/><text fill="#000000" font-family="sans-serif" font-size="14" lengthAdjust="spacing" textLength="157.2197" x="2121.5" y="265.0889">+moves : List&lt;Move&gt;</text><line style="stroke:#444444;stroke-width:1;" x1="2112.5" x2="2287.7197" y1="276.3906" y2="276.3906"/></g><g class="entity" data-qualified-name="GMN49" data-source-line="194" id="ent0050"><path d="M4339,409.5938 L4339,472.9922 L4647.4302,472.9922 L4647.4302,419.5938 L4637.4302,409.5938 L4339,409.5938" fill="#FEFFDD" style="stroke:#181818;stroke-width:0.5;"/><path d="M4637.4302,409.5938 L4637.4302,419.5938 L4647.4302,419.5938 L4637.4302,409.5938" fill="#FEFFDD" style="stroke:#181818;stroke-width:1;"/><text fill="#000000" font-family="sans-serif" font-size="13" lengthAdjust="spacing" textLength="237.3071" x="4349" y="430.6606">Same logic as PointsTable (football).</text><text fill="#000000" font-family="sans-serif" font-size="13" lengthAdjust="spacing" textLength="223.209" x="4349" y="445.7935">Shown as separate class to reflect</text><text fill="#000000" font-family="sans-serif" font-size="13" lengthAdjust="spacing" textLength="279.4302" x="4349" y="460.9263">independent instantiation per competition.</text></g><g class="entity" data-qualified-name="GMN52" data-source-line="200" id="ent0053"><path d="M3626.5,67.5938 L3626.5,115.8594 A0,0 0 0 0 3626.5,115.8594 L3819,115.8594 L3823,199.3338 L3827,115.8594 L4019.189,115.8594 A0,0 0 0 0 4019.189,115.8594 L4019.189,77.5938 L4009.189,67.5938 L3626.5,67.5938 A0,0 0 0 0 3626.5,67.5938" fill="#FEFFDD" style="stroke:#181818;stroke-width:0.5;"/><path d="M4009.189,67.5938 L4009.189,77.5938 L4019.189,77.5938 L4009.189,67.5938" fill="#FEFFDD" style="stroke:#181818;stroke-width:0.5;"/><text fill="#000000" font-family="sans-serif" font-size="13" lengthAdjust="spacing" textLength="286.9331" x="3636.5" y="88.6606">Reads current standings before each round.</text><text fill="#000000" font-family="sans-serif" font-size="13" lengthAdjust="spacing" textLength="363.689" x="3636.5" y="103.7935">Cannot emit round N+1 before round N is fully decided.</text></g><g class="entity" data-qualified-name="GMN55" data-source-line="205" id="ent0056"><path d="M2873,67.5938 L2873,115.8594 A0,0 0 0 0 2873,115.8594 L3061,115.8594 L3065,212.0238 L3069,115.8594 L3256.834,115.8594 A0,0 0 0 0 3256.834,115.8594 L3256.834,77.5938 L3246.834,67.5938 L2873,67.5938 A0,0 0 0 0 2873,67.5938" fill="#FEFFDD" style="stroke:#181818;stroke-width:0.5;"/><path d="M3246.834,67.5938 L3246.834,77.5938 L3256.834,77.5938 L3246.834,67.5938" fill="#FEFFDD" style="stroke:#181818;stroke-width:0.5;"/><text fill="#000000" font-family="sans-serif" font-size="13" lengthAdjust="spacing" textLength="165.0327" x="2883" y="88.6606">Does NOT read MoveLog.</text><text fill="#000000" font-family="sans-serif" font-size="13" lengthAdjust="spacing" textLength="354.834" x="2883" y="103.7935">Reads only TerminationKind set by TerminalCondition.</text></g><!--link FootballSport to Sport--><g class="link" data-entity-1="ent0011" data-entity-2="ent0009" data-link-type="extension" data-source-line="166" id="lnk30"><path codeLine="166" d="M748,308.6938 C748,370.5638 748,457.5938 748,457.5938 C748,457.5938 1261,457.5938 1261,457.5938 C1261,457.5938 1261,523.6538 1261,566.3338" fill="none" id="FootballSport-to-Sport" style="stroke:#181818;stroke-width:1;stroke-dasharray:7,7;"/><polygon fill="none" points="1261,584.3338,1267,566.3338,1255,566.3338,1261,584.3338" style="stroke:#181818;stroke-width:1;"/></g><!--link TimeLimit to TerminationRule--><g class="link" data-entity-1="ent0012" data-entity-2="ent0003" data-link-type="extension" data-source-line="167" id="lnk31"><path codeLine="167" d="M1169.24,318.5938 C1314.88,318.5938 1546.83,318.5938 1546.83,318.5938 C1546.83,318.5938 1546.83,496.6738 1546.83,566.3638" fill="none" id="TimeLimit-to-TerminationRule" style="stroke:#181818;stroke-width:1;stroke-dasharray:7,7;"/><polygon fill="none" points="1546.83,584.3638,1552.83,566.3638,1540.83,566.3638,1546.83,584.3638" style="stroke:#181818;stroke-width:1;"/></g><!--link EventDerived to OutcomeRule--><g class="link" data-entity-1="ent0013" data-entity-2="ent0004" data-link-type="extension" data-source-line="168" id="lnk32"><path codeLine="168" d="M553,284.2338 C553,313.7438 553,350.5938 553,350.5938 C553,350.5938 1355.5,350.5938 1355.5,350.5938 C1355.5,350.5938 1355.5,502.0938 1355.5,566.3238" fill="none" id="EventDerived-to-OutcomeRule" style="stroke:#181818;stroke-width:1;stroke-dasharray:7,7;"/><polygon fill="none" points="1355.5,584.3238,1361.5,566.3238,1349.5,566.3238,1355.5,584.3238" style="stroke:#181818;stroke-width:1;"/></g><!--link WinDrawLoss_3_1_0 to ScoringRule--><g class="link" data-entity-1="ent0014" data-entity-2="ent0005" data-link-type="extension" data-source-line="169" id="lnk33"><path codeLine="169" d="M1366.5,284.1838 C1366.5,295.7338 1366.5,305.5938 1366.5,305.5938 C1366.5,305.5938 1703,305.5938 1703,305.5938 C1703,305.5938 1703,494.8938 1703,566.5638" fill="none" id="WinDrawLoss_3_1_0-to-ScoringRule" style="stroke:#181818;stroke-width:1;stroke-dasharray:7,7;"/><polygon fill="none" points="1703,584.5638,1709,566.5638,1697,566.5638,1703,584.5638" style="stroke:#181818;stroke-width:1;"/></g><!--link RoundRobin to FixtureGenerator--><g class="link" data-entity-1="ent0015" data-entity-2="ent0006" data-link-type="extension" data-source-line="170" id="lnk34"><path codeLine="170" d="M1731.12,290.5938 C1802.17,290.5938 1870.17,290.5938 1870.17,290.5938 C1870.17,290.5938 1870.17,492.2238 1870.17,566.4338" fill="none" id="RoundRobin-to-FixtureGenerator" style="stroke:#181818;stroke-width:1;stroke-dasharray:7,7;"/><polygon fill="none" points="1870.17,584.4338,1876.17,566.4338,1864.17,566.4338,1870.17,584.4338" style="stroke:#181818;stroke-width:1;"/></g><!--link PointsTable to StandingsAggregator--><g class="link" data-entity-1="ent0016" data-entity-2="ent0007" data-link-type="extension" data-source-line="171" id="lnk35"><path codeLine="171" d="M2028.5,284.3138 C2028.5,357.6938 2028.5,504.2238 2028.5,566.2838" fill="none" id="PointsTable-to-StandingsAggregator" style="stroke:#181818;stroke-width:1;stroke-dasharray:7,7;"/><polygon fill="none" points="2028.5,584.2838,2034.5,566.2838,2022.5,566.2838,2028.5,584.2838" style="stroke:#181818;stroke-width:1;"/></g><!--link GoalDifference to Tiebreak--><g class="link" data-entity-1="ent0017" data-entity-2="ent0008" data-link-type="extension" data-source-line="172" id="lnk36"><path codeLine="172" d="M336.28,290.5938 C348.08,290.5938 355.5,290.5938 355.5,290.5938 C355.5,290.5938 355.5,600.5938 355.5,600.5938 C355.5,600.5938 921.32,600.5938 1091.79,600.5938" fill="none" id="GoalDifference-to-Tiebreak" style="stroke:#181818;stroke-width:1;stroke-dasharray:7,7;"/><polygon fill="none" points="1109.79,600.5938,1091.79,594.5938,1091.79,606.5938,1109.79,600.5938" style="stroke:#181818;stroke-width:1;"/></g><!--link HeadToHead_Football to Tiebreak--><g class="link" data-entity-1="ent0018" data-entity-2="ent0008" data-link-type="extension" data-source-line="173" id="lnk37"><path codeLine="173" d="M183,489.9838 C183,541.9137 183,616.5938 183,616.5938 C183,616.5938 898.36,616.5938 1091.72,616.5938" fill="none" id="HeadToHead_Football-to-Tiebreak" style="stroke:#181818;stroke-width:1;stroke-dasharray:7,7;"/><polygon fill="none" points="1109.72,616.5938,1091.72,610.5938,1091.72,622.5938,1109.72,616.5938" style="stroke:#181818;stroke-width:1;"/></g><!--link ChessSport to Sport--><g class="link" data-entity-1="ent0021" data-entity-2="ent0009" data-link-type="extension" data-source-line="176" id="lnk38"><path codeLine="176" d="M2672.77,302.5938 C2302.96,302.5938 1285,302.5938 1285,302.5938 C1285,302.5938 1285,494.4438 1285,566.5838" fill="none" id="ChessSport-to-Sport" style="stroke:#181818;stroke-width:1;stroke-dasharray:7,7;"/><polygon fill="none" points="1285,584.5838,1291,566.5838,1279,566.5838,1285,584.5838" style="stroke:#181818;stroke-width:1;"/></g><!--link TerminalCondition to TerminationRule--><g class="link" data-entity-1="ent0022" data-entity-2="ent0003" data-link-type="extension" data-source-line="177" id="lnk39"><path codeLine="177" d="M3305,284.2938 C3305,298.5538 3305,311.5938 3305,311.5938 C3305,311.5938 1593.17,311.5938 1593.17,311.5938 C1593.17,311.5938 1593.17,495.8338 1593.17,566.5438" fill="none" id="TerminalCondition-to-TerminationRule" style="stroke:#181818;stroke-width:1;stroke-dasharray:7,7;"/><polygon fill="none" points="1593.17,584.5438,1599.17,566.5438,1587.17,566.5438,1593.17,584.5438" style="stroke:#181818;stroke-width:1;"/></g><!--link Declared to OutcomeRule--><g class="link" data-entity-1="ent0023" data-entity-2="ent0004" data-link-type="extension" data-source-line="178" id="lnk40"><path codeLine="178" d="M3065,284.3238 C3065,363.2338 3065,543.5938 3065,543.5938 C3065,543.5938 1439.25,543.5938 1439.25,543.5938 C1439.25,543.5938 1439.25,547.9137 1439.25,566.3938" fill="none" id="Declared-to-OutcomeRule" style="stroke:#181818;stroke-width:1;stroke-dasharray:7,7;"/><polygon fill="none" points="1439.25,584.3938,1445.25,566.3938,1433.25,566.3938,1439.25,584.3938" style="stroke:#181818;stroke-width:1;"/></g><!--link WinDrawLoss_1_0p5_0 to ScoringRule--><g class="link" data-entity-1="ent0024" data-entity-2="ent0005" data-link-type="extension" data-source-line="179" id="lnk41"><path codeLine="179" d="M3541,284.2938 C3541,299.4438 3541,313.5938 3541,313.5938 C3541,313.5938 1776.25,313.5938 1776.25,313.5938 C1776.25,313.5938 1776.25,495.9938 1776.25,566.4538" fill="none" id="WinDrawLoss_1_0p5_0-to-ScoringRule" style="stroke:#181818;stroke-width:1;stroke-dasharray:7,7;"/><polygon fill="none" points="1776.25,584.4538,1782.25,566.4538,1770.25,566.4538,1776.25,584.4538" style="stroke:#181818;stroke-width:1;"/></g><!--link SwissPairing to FixtureGenerator--><g class="link" data-entity-1="ent0025" data-entity-2="ent0006" data-link-type="extension" data-source-line="180" id="lnk42"><path codeLine="180" d="M3823,296.7838 C3823,307.9338 3823,316.5938 3823,316.5938 C3823,316.5938 1917.83,316.5938 1917.83,316.5938 C1917.83,316.5938 1917.83,496.0238 1917.83,566.2038" fill="none" id="SwissPairing-to-FixtureGenerator" style="stroke:#181818;stroke-width:1;stroke-dasharray:7,7;"/><polygon fill="none" points="1917.83,584.2038,1923.83,566.2038,1911.83,566.2038,1917.83,584.2038" style="stroke:#181818;stroke-width:1;"/></g><!--link PointsTable_Chess to StandingsAggregator--><g class="link" data-entity-1="ent0026" data-entity-2="ent0007" data-link-type="extension" data-source-line="181" id="lnk43"><path codeLine="181" d="M4113.5,284.3138 C4113.5,375.7238 4113.5,608.5938 4113.5,608.5938 C4113.5,608.5938 2568.11,608.5938 2185.66,608.5938" fill="none" id="PointsTable_Chess-to-StandingsAggregator" style="stroke:#181818;stroke-width:1;stroke-dasharray:7,7;"/><polygon fill="none" points="2167.66,608.5938,2185.66,614.5938,2185.66,602.5938,2167.66,608.5938" style="stroke:#181818;stroke-width:1;"/></g><!--link Buchholz to Tiebreak--><g class="link" data-entity-1="ent0027" data-entity-2="ent0008" data-link-type="extension" data-source-line="182" id="lnk44"><path codeLine="182" d="M2358.33,296.8238 C2358.33,298.5738 2358.33,299.5938 2358.33,299.5938 C2358.33,299.5938 1180,299.5938 1180,299.5938 C1180,299.5938 1180,493.5037 1180,566.3438" fill="none" id="Buchholz-to-Tiebreak" style="stroke:#181818;stroke-width:1;stroke-dasharray:7,7;"/><polygon fill="none" points="1180,584.3438,1186,566.3438,1174,566.3438,1180,584.3438" style="stroke:#181818;stroke-width:1;"/></g><!--link SonnebornBerger to Tiebreak--><g class="link" data-entity-1="ent0028" data-entity-2="ent0008" data-link-type="extension" data-source-line="183" id="lnk45"><path codeLine="183" d="M2112.82,425.5938 C1813.45,425.5938 1191,425.5938 1191,425.5938 C1191,425.5938 1191,516.5138 1191,566.2938" fill="none" id="SonnebornBerger-to-Tiebreak" style="stroke:#181818;stroke-width:1;stroke-dasharray:7,7;"/><polygon fill="none" points="1191,584.2938,1197,566.2938,1185,566.2938,1191,584.2938" style="stroke:#181818;stroke-width:1;"/></g><!--link GoalDifference to HeadToHead_Football--><g class="link" data-entity-1="ent0017" data-entity-2="ent0018" data-link-type="dependency" data-source-line="187" id="lnk46"><path codeLine="187" d="M181,296.7938 C181,326.0538 181,357.1538 181,386.4038" fill="none" id="GoalDifference-to-HeadToHead_Football" style="stroke:#181818;stroke-width:1;"/><polygon fill="#181818" points="181,392.4038,185,383.4038,181,387.4038,177,383.4038,181,392.4038" style="stroke:#181818;stroke-width:1;"/><polygon fill="#000000" points="134,337.1702,136.9389,328.1251,131.0611,328.1251,134,337.1702" style="stroke:#000000;stroke-width:1;"/><text fill="#000000" font-family="sans-serif" font-size="13" lengthAdjust="spacing" textLength="29.0278" x="147" y="336.6706">next</text><text fill="#000000" font-family="sans-serif" font-size="13" lengthAdjust="spacing" textLength="8.271" x="168.2986" y="320.2304">1</text><text fill="#000000" font-family="sans-serif" font-size="13" lengthAdjust="spacing" textLength="24.8066" x="150.6501" y="377.4188">0..1</text></g><!--link Buchholz to SonnebornBerger--><g class="link" data-entity-1="ent0027" data-entity-2="ent0028" data-link-type="dependency" data-source-line="188" id="lnk47"><path codeLine="188" d="M2392.67,296.7938 C2392.67,326.0538 2392.67,357.1538 2392.67,386.4038" fill="none" id="Buchholz-to-SonnebornBerger" style="stroke:#181818;stroke-width:1;"/><polygon fill="#181818" points="2392.67,392.4038,2396.67,383.4038,2392.67,387.4038,2388.67,383.4038,2392.67,392.4038" style="stroke:#181818;stroke-width:1;"/><polygon fill="#000000" points="2345.67,337.1702,2348.6089,328.1251,2342.7311,328.1251,2345.67,337.1702" style="stroke:#000000;stroke-width:1;"/><text fill="#000000" font-family="sans-serif" font-size="13" lengthAdjust="spacing" textLength="29.0278" x="2358.67" y="336.6706">next</text><text fill="#000000" font-family="sans-serif" font-size="13" lengthAdjust="spacing" textLength="8.271" x="2368.9596" y="320.2304">1</text><text fill="#000000" font-family="sans-serif" font-size="13" lengthAdjust="spacing" textLength="24.8066" x="2379.0727" y="377.4188">0..1</text></g><!--link EventDerived to ContestEvent--><g class="link" data-entity-1="ent0013" data-entity-2="ent0019" data-link-type="dependency" data-source-line="191" id="lnk48"><path codeLine="191" d="M464,284.3938 C464,311.3638 464,342.7838 464,374.2938" fill="none" id="EventDerived-to-ContestEvent" style="stroke:#181818;stroke-width:1;stroke-dasharray:7,7;"/><polygon fill="#181818" points="464,380.2938,468,371.2938,464,375.2938,460,371.2938,464,380.2938" style="stroke:#181818;stroke-width:1;"/><polygon fill="#000000" points="345,324.9102,347.9389,315.8651,342.0611,315.8651,345,324.9102" style="stroke:#000000;stroke-width:1;"/><text fill="#000000" font-family="sans-serif" font-size="13" lengthAdjust="spacing" textLength="101.4419" x="358" y="324.4106">reads event log</text></g><!--link PointsTable_Chess to GMN49--><g class="link" data-entity-1="ent0026" data-entity-2="ent0050" data-link-type="association" data-source-line="194" id="lnk51"><path d="M4210.5,284.4938 C4210.5,340.5438 4210.5,441.5938 4210.5,441.5938 C4210.5,441.5938 4272.83,441.5938 4338.94,441.5938" fill="none" id="PointsTable_Chess-GMN49" style="stroke:#181818;stroke-width:1;stroke-dasharray:7,7;"/></g><?plantuml-src jLZTRkCs5hxtKnoa5t4mYPjqEi0qtGPGR3annZ-1h3Gji811IxJDZKog91LFsWumLukzBleC-s1vaZsaA5cIdUvaTjOpI6Jna3pyUCxtdHDrptXA95b3mZZLZoa58VLAj5Gv42L4AKzhoUQPfeD8y2dxbS9fq-HIo9ZASCMYUqwLWhEAWIUbsEmVkY5npFWIlcsk1x-r02v9TB-K8kDnLoH2mjsAQMhUsytoTrzzQp_ujY-ujiwTVTFwK5cFSKtbWaHqxvfVzVlzj_tJvgflxMTdrPPcEg7WlzUKAoOuZ4IS9LJ1qyS_qLJeEKaI83o6xWhF-dS-5j355QZIy3K4L6M9UPXgeXMeR6xFIjNteBGacYuPBYLuyjXg7Jxz-V7J_qDt4lWm68T-qFUw_XJQIcTp1GiyYwGaOOfeuounLw6Eu4MBjrB4Z2mf77I5f30ey5JGbdH19UKHFJf09D-QVnRbBUOXbMl6xUu18bKRcsGw4ckwytuQ2ObHiVE-pzxhJD8hoYcY9MHzaaROSPRobaj9bplZ8QDpXE8UN-OHDaqnsCsTlX3g_cGINdh38OmclTkX_xbObj6IXn3Yvx_jl_6_G_nA5miRwwe55k0LSBAcy0CSU4g9YEKNMrWUE1jy51iQ1y84vm_ms_Lav1-3T-Vz_C5Pn7H1C1gx92LpbZ3DSaF_WN8TKBm10sPkV79YVnt2ZHGBXl5lGlJxwZKXWJpOqCLeNwSKimITmaaVjcS9sPeEsPfjpu6tb2L4ZXX7Qb5mRYuBNVZkr8qhBT8KiJ8pyr4tGDzZjfYtFYVpXCOuU2dmf8HNtNq5J4qUg6n7HsXGYSDtZCVkG8stvn3uLxT3Bu3VmVyf3BnPE1Zv-EN67tl3SE1FwsUoOFMenCF7vR7c6KlYFDNphVDdjsE4r8EvlnGamVIKObtmWrqB4h5qXcB3dPMTWXkOP5Q8EPM727MQ2avviQoqUvo39FmUJLF296oONkKJ3BtNFRzZl2V9PYYKchsUdSrEI_TJWK2hjhAkZxCrdYvoczp1qp__WDV7qBCFPySmj0-dzRK3mww1c3DUBhh2DFTux6t8u_QoyAwrp6ZzpZXUhbsW7MqZoRWoP4h_pM5ruHoY64w8OePPfA8LDNa4H6COHhIm8D4A42R4HSEQKZId61EF8FIAIZX3mODlG6CigVeXRYmCeOclyXJ68mpL7SyeGU6O2oABi5BPMZaW8SLjK8WqYrXgd12ulKbFJC28nNXNKNucvUQI145IUA5kj_WOCJ5p8cAEMFVo2WEannQEX2kPfKJoGDkOr3WzZmrLWdYpzUQYWhf9aYr76bUkUdX5UGpQC8hXwLz_b4696nhtIIGnYAedShDJAssOnIn9JemdO7Gt1ItoxIA9QYvtUE8QqGo5-JahAV8BdojcYAvsyzkum9pg3QKSh9VsiWeThhbMozJ29wmp307PboMpl8ArPRKQRLMYO62ctDuEUiwZSlOvN4sy8JBEv6uySu-1tvjrlQ27ZqyV_rs4IOQ56YA8tFL0BJNKo4ZaqWeorz0Fdw5ptMj_ElqVHSvMGLk5mrhhjNzQLJXhi5_UxD1pUdPtFGXHq2w7NlVTVr6q4MRSKFoLb3M4AjU416yxjZbUUlOPUe8WTj-DlD2tzpWTN8szS30PEtF0jzFG6_hE8hmEVBy_6VPcWN_ZXuE6QN_G3t-UZIO_6bll2cr7_ZWqyr2bPlr9qFS7OH4VyJz49ldQXAhXwEdj54Miv_UWpOK60jeTqmRmKHs27iNVyfCr3LChLe24sZm_laCwfjpmX1bUujMwELjWlgu2OttTC8uLdWq4JFD4gE9BIP78DQXUrdLbfz1VCZoAKJ-iI8vXZlGE1x6acuCYvmL6mtWIMcTXZJ7XjFOPKKH9JD-yH1RFEgU5C9vstfJIs6c8utJ3bBf1UJPjJx4uUH0CuLqJZHIllgH2vbSJPLAQG515ZOoCjp2rV9exKZ8sawfAKxQYow55Wk6Ko9FycvM3Cj98QaZe71MAczWogWosnOBngxDYA_UY8XBxrNQMSyQBDHSNvUWtEeVtoY8ZCuj2FohB5mfDJNDegYei0wWnLYknGRAEQMhY5S5YtC2bymAxxkvb5grM8ldrImiJrWqW5cLjfmvpeB4_NB6bgLSmCnfrobHWhio5v9TKBj7Y_-DHxePvGfAb5hVIILFUaQHcWqdKGCoHSEcUIK1LU6C6Yu1b7ADbRJ4t2MqR4TTlbApK4BSolKtmsVGkTZDTETCk2NOP-tDKCV2zuM2QSvKN19ExwGkryN3xTm9340QqRPUgMlMM3p-TpkyNu9hLRG_bFlbWiyUkLG9RisgxlLl_MvjgvrqfuwkRxJJXrKgvOhUl7s-KgwN_HSpjg_siIMc1yENyi0-xIZ5HyoJ7RaVMyvKRs9L1LeVuEUmAcTX1hyRpduQUOxvygJtebQpJkFq2coOLDCTV6kg3CNR09wu070x6xruUwiNU4As8eQv601oS7Q2kNS31QQU3Z_kk_pmdfeljwHkJcgSk9xGEwoLnpW8xtNRDfjEvg5kSkscqi3SB8yzGKs9eOSbnvmgHMgQcYCs5YDIRoNQXIaSTOxSoVJwQ58Ba-185IT95WcsA_IFMCwfacykACdPQQ6Lea3edjKYDXzLWnFM2louARCzivTfusFqKKMTv5_vOgFjpZXJPXUlsQWMPO-nEwPsX_9roKb4DyyVT2dsxtNy0?></g></svg>