<?plantuml 1.2026.2?><svg xmlns="http://www.w3.org/2000/svg" xmlns:xlink="http://www.w3.org/1999/xlink" contentStyleType="text/css" data-diagram-type="SEQUENCE" height="1149px" preserveAspectRatio="none" style="width:1238px;height:1149px;background:#FFFFFF;" version="1.1" viewBox="0 0 1238 1149" width="1238px" zoomAndPan="magnify"><title>Flow 1 &#8212; Chess match: termination then outcome
(the two contracts stay separate even when one event answers both)</title><defs/><g><text fill="#000000" font-family="sans-serif" font-size="14" font-weight="bold" lengthAdjust="spacing" textLength="393.1348" x="421.3777" y="27.9951">Flow 1 &#8212; Chess match: termination then outcome</text><text fill="#000000" font-family="sans-serif" font-size="14" font-weight="bold" lengthAdjust="spacing" textLength="550.6348" x="342.6277" y="44.292">(the two contracts stay separate even when one event answers both)</text><g><title>Contest</title><rect fill="#FFFFFF" height="797.2891" style="stroke:#181818;stroke-width:1;" width="10" x="220.1372" y="166.0234"/></g><g><title>..TerminationRule..</title><rect fill="#FFFFFF" height="29.1328" style="stroke:#181818;stroke-width:1;" width="10" x="434.1948" y="288.2266"/></g><g><title>..TerminationRule..</title><rect fill="#FFFFFF" height="29.1328" style="stroke:#181818;stroke-width:1;" width="10" x="434.1948" y="417.7578"/></g><g><title>..OutcomeRule..</title><rect fill="#FFFFFF" height="344.625" style="stroke:#181818;stroke-width:1;" width="10" x="620.8862" y="568.4219"/></g><rect fill="none" height="102.2031" style="stroke:#000000;stroke-width:1.5;" width="532.7461" x="10" y="223.1563"/><g class="participant-lifeline" data-entity-uid="part1" data-qualified-name="sys" id="part1-lifeline"><g><title>Chess system</title><rect fill="#000000" fill-opacity="0.00000" height="933.9531" width="8" x="67.4565" y="134.8906"/><line style="stroke:#181818;stroke-width:0.5;stroke-dasharray:5,5;" x1="71" x2="71" y1="134.8906" y2="1068.8438"/></g></g><g class="participant-lifeline" data-entity-uid="part2" data-qualified-name="C" id="part2-lifeline"><g><title>Contest</title><rect fill="#000000" fill-opacity="0.00000" height="933.9531" width="8" x="221.1372" y="134.8906"/><line style="stroke:#181818;stroke-width:0.5;stroke-dasharray:5,5;" x1="225.0874" x2="225.0874" y1="134.8906" y2="1068.8438"/></g></g><g class="participant-lifeline" data-entity-uid="part3" data-qualified-name="TR" id="part3-lifeline"><g><title>..TerminationRule..</title><rect fill="#000000" fill-opacity="0.00000" height="933.9531" width="8" x="435.1948" y="134.8906"/><line style="stroke:#181818;stroke-width:0.5;stroke-dasharray:5,5;" x1="438.6436" x2="438.6436" y1="134.8906" y2="1068.8438"/></g></g><g class="participant-lifeline" data-entity-uid="part4" data-qualified-name="OR" id="part4-lifeline"><g><title>..OutcomeRule..</title><rect fill="#000000" fill-opacity="0.00000" height="933.9531" width="8" x="621.8862" y="134.8906"/><line style="stroke:#181818;stroke-width:0.5;stroke-dasharray:5,5;" x1="625.7461" x2="625.7461" y1="134.8906" y2="1068.8438"/></g></g><g class="participant-lifeline" data-entity-uid="part5" data-qualified-name="PW" id="part5-lifeline"><g><title>Participation</title><rect fill="#000000" fill-opacity="0.00000" height="933.9531" width="8" x="896.9639" y="134.8906"/><line style="stroke:#181818;stroke-width:0.5;stroke-dasharray:5,5;" x1="900.9507" x2="900.9507" y1="134.8906" y2="1068.8438"/></g></g><g class="participant-lifeline" data-entity-uid="part6" data-qualified-name="PB" id="part6-lifeline"><g><title>Participation</title><rect fill="#000000" fill-opacity="0.00000" height="933.9531" width="8" x="1048.9902" y="134.8906"/><line style="stroke:#181818;stroke-width:0.5;stroke-dasharray:5,5;" x1="1052.9771" x2="1052.9771" y1="134.8906" y2="1068.8438"/></g></g><g class="participant-lifeline" data-entity-uid="part7" data-qualified-name="R" id="part7-lifeline"><g><title>Result</title><rect fill="#000000" fill-opacity="0.00000" height="245.8438" width="8" x="1178.9468" y="823"/><line style="stroke:#181818;stroke-width:0.5;stroke-dasharray:5,5;" x1="1182.0034" x2="1182.0034" y1="823" y2="1068.8438"/></g></g><g class="participant participant-head" data-entity-uid="part1" data-qualified-name="sys" id="part1-head"><text fill="#000000" font-family="sans-serif" font-size="14" lengthAdjust="spacing" textLength="96.9131" x="20" y="131.5889">Chess system</text><ellipse cx="71.4565" cy="67.0938" fill="#E2E2F0" rx="8" ry="8" style="stroke:#181818;stroke-width:0.5;"/><path d="M71.4565,75.0938 L71.4565,102.0938 M58.4565,83.0938 L84.4565,83.0938 M71.4565,102.0938 L58.4565,117.0938 M71.4565,102.0938 L84.4565,117.0938" fill="none" style="stroke:#181818;stroke-width:0.5;"/></g><g class="participant participant-tail" data-entity-uid="part1" data-qualified-name="sys" id="part1-tail"><text fill="#000000" font-family="sans-serif" font-size="14" lengthAdjust="spacing" textLength="96.9131" x="20" y="1080.8389">Chess system</text><ellipse cx="71.4565" cy="1092.6406" fill="#E2E2F0" rx="8" ry="8" style="stroke:#181818;stroke-width:0.5;"/><path d="M71.4565,1100.6406 L71.4565,1127.6406 M58.4565,1108.6406 L84.4565,1108.6406 M71.4565,1127.6406 L58.4565,1142.6406 M71.4565,1127.6406 L84.4565,1142.6406" fill="none" style="stroke:#181818;stroke-width:0.5;"/></g><g class="participant participant-head" data-entity-uid="part2" data-qualified-name="C" id="part2-head"><rect fill="#E2E2F0" height="30.2969" rx="2.5" ry="2.5" style="stroke:#181818;stroke-width:0.5;" width="68.0996" x="191.0874" y="103.5938"/><text fill="#000000" font-family="sans-serif" font-size="14" lengthAdjust="spacing" textLength="54.0996" x="198.0874" y="123.5889">Contest</text></g><g class="participant participant-tail" data-entity-uid="part2" data-qualified-name="C" id="part2-tail"><rect fill="#E2E2F0" height="30.2969" rx="2.5" ry="2.5" style="stroke:#181818;stroke-width:0.5;" width="68.0996" x="191.0874" y="1067.8438"/><text fill="#000000" font-family="sans-serif" font-size="14" lengthAdjust="spacing" textLength="54.0996" x="198.0874" y="1087.8389">Contest</text></g><g class="participant participant-head" data-entity-uid="part3" data-qualified-name="TR" id="part3-head"><rect fill="#E2E2F0" height="46.5938" rx="2.5" ry="2.5" style="stroke:#181818;stroke-width:0.5;" width="147.1025" x="365.6436" y="87.2969"/><text fill="#000000" font-family="sans-serif" font-size="14" font-style="italic" lengthAdjust="spacing" textLength="133.1025" x="372.6436" y="107.292">&#171;TerminationRule&#187;</text><text fill="#000000" font-family="sans-serif" font-size="14" lengthAdjust="spacing" textLength="128.5977" x="374.896" y="123.5889">TerminalCondition</text></g><g class="participant participant-tail" data-entity-uid="part3" data-qualified-name="TR" id="part3-tail"><rect fill="#E2E2F0" height="46.5938" rx="2.5" ry="2.5" style="stroke:#181818;stroke-width:0.5;" width="147.1025" x="365.6436" y="1067.8438"/><text fill="#000000" font-family="sans-serif" font-size="14" font-style="italic" lengthAdjust="spacing" textLength="133.1025" x="372.6436" y="1087.8389">&#171;TerminationRule&#187;</text><text fill="#000000" font-family="sans-serif" font-size="14" lengthAdjust="spacing" textLength="128.5977" x="374.896" y="1104.1357">TerminalCondition</text></g><g class="participant participant-head" data-entity-uid="part4" data-qualified-name="OR" id="part4-head"><rect fill="#E2E2F0" height="46.5938" rx="2.5" ry="2.5" style="stroke:#181818;stroke-width:0.5;" width="126.2803" x="562.7461" y="87.2969"/><text fill="#000000" font-family="sans-serif" font-size="14" font-style="italic" lengthAdjust="spacing" textLength="112.2803" x="569.7461" y="107.292">&#171;OutcomeRule&#187;</text><text fill="#000000" font-family="sans-serif" font-size="14" lengthAdjust="spacing" textLength="62.8154" x="594.4785" y="123.5889">Declared</text></g><g class="participant participant-tail" data-entity-uid="part4" data-qualified-name="OR" id="part4-tail"><rect fill="#E2E2F0" height="46.5938" rx="2.5" ry="2.5" style="stroke:#181818;stroke-width:0.5;" width="126.2803" x="562.7461" y="1067.8438"/><text fill="#000000" font-family="sans-serif" font-size="14" font-style="italic" lengthAdjust="spacing" textLength="112.2803" x="569.7461" y="1087.8389">&#171;OutcomeRule&#187;</text><text fill="#000000" font-family="sans-serif" font-size="14" lengthAdjust="spacing" textLength="62.8154" x="594.4785" y="1104.1357">Declared</text></g><g class="participant participant-head" data-entity-uid="part5" data-qualified-name="PW" id="part5-head"><rect fill="#E2E2F0" height="46.5938" rx="2.5" ry="2.5" style="stroke:#181818;stroke-width:0.5;" width="102.0264" x="849.9507" y="87.2969"/><text fill="#000000" font-family="sans-serif" font-size="14" lengthAdjust="spacing" textLength="88.0264" x="856.9507" y="107.292">Participation</text><text fill="#000000" font-family="sans-serif" font-size="14" lengthAdjust="spacing" textLength="51.6318" x="875.1479" y="123.5889">[White]</text></g><g class="participant participant-tail" data-entity-uid="part5" data-qualified-name="PW" id="part5-tail"><rect fill="#E2E2F0" height="46.5938" rx="2.5" ry="2.5" style="stroke:#181818;stroke-width:0.5;" width="102.0264" x="849.9507" y="1067.8438"/><text fill="#000000" font-family="sans-serif" font-size="14" lengthAdjust="spacing" textLength="88.0264" x="856.9507" y="1087.8389">Participation</text><text fill="#000000" font-family="sans-serif" font-size="14" lengthAdjust="spacing" textLength="51.6318" x="875.1479" y="1104.1357">[White]</text></g><g class="participant participant-head" data-entity-uid="part6" data-qualified-name="PB" id="part6-head"><rect fill="#E2E2F0" height="46.5938" rx="2.5" ry="2.5" style="stroke:#181818;stroke-width:0.5;" width="102.0264" x="1001.9771" y="87.2969"/><text fill="#000000" font-family="sans-serif" font-size="14" lengthAdjust="spacing" textLength="88.0264" x="1008.9771" y="107.292">Participation</text><text fill="#000000" font-family="sans-serif" font-size="14" lengthAdjust="spacing" textLength="48.8018" x="1028.5894" y="123.5889">[Black]</text></g><g class="participant participant-tail" data-entity-uid="part6" data-qualified-name="PB" id="part6-tail"><rect fill="#E2E2F0" height="46.5938" rx="2.5" ry="2.5" style="stroke:#181818;stroke-width:0.5;" width="102.0264" x="1001.9771" y="1067.8438"/><text fill="#000000" font-family="sans-serif" font-size="14" lengthAdjust="spacing" textLength="88.0264" x="1008.9771" y="1087.8389">Participation</text><text fill="#000000" font-family="sans-serif" font-size="14" lengthAdjust="spacing" textLength="48.8018" x="1028.5894" y="1104.1357">[Black]</text></g><g class="participant participant-tail" data-entity-uid="part7" data-qualified-name="R" id="part7-tail"><rect fill="#E2E2F0" height="30.2969" rx="2.5" ry="2.5" style="stroke:#181818;stroke-width:0.5;" width="57.8867" x="1154.0034" y="1067.8438"/><text fill="#000000" font-family="sans-serif" font-size="14" lengthAdjust="spacing" textLength="43.8867" x="1161.0034" y="1087.8389">Result</text></g><g><title>Contest</title><rect fill="#FFFFFF" height="797.2891" style="stroke:#181818;stroke-width:1;" width="10" x="220.1372" y="166.0234"/></g><g><title>..TerminationRule..</title><rect fill="#FFFFFF" height="29.1328" style="stroke:#181818;stroke-width:1;" width="10" x="434.1948" y="288.2266"/></g><g><title>..TerminationRule..</title><rect fill="#FFFFFF" height="29.1328" style="stroke:#181818;stroke-width:1;" width="10" x="434.1948" y="417.7578"/></g><g><title>..OutcomeRule..</title><rect fill="#FFFFFF" height="344.625" style="stroke:#181818;stroke-width:1;" width="10" x="620.8862" y="568.4219"/></g><g class="message" data-entity-1="part1" data-entity-2="part2" id="msg1"><polygon fill="#181818" points="208.1372,162.0234,218.1372,166.0234,208.1372,170.0234,212.1372,166.0234" style="stroke:#181818;stroke-width:1;"/><line style="stroke:#181818;stroke-width:1;" x1="71.4565" x2="214.1372" y1="166.0234" y2="166.0234"/><text fill="#000000" font-family="sans-serif" font-size="13" lengthAdjust="spacing" textLength="40.4219" x="125.5859" y="160.9575">start()</text></g><g class="message" data-entity-1="part2" data-entity-2="part2" id="msg2"><line style="stroke:#181818;stroke-width:1;" x1="230.1372" x2="272.1372" y1="195.1563" y2="195.1563"/><line style="stroke:#181818;stroke-width:1;" x1="272.1372" x2="272.1372" y1="195.1563" y2="208.1563"/><line style="stroke:#181818;stroke-width:1;" x1="231.1372" x2="272.1372" y1="208.1563" y2="208.1563"/><polygon fill="#181818" points="241.1372,204.1563,231.1372,208.1563,241.1372,212.1563,237.1372,208.1563" style="stroke:#181818;stroke-width:1;"/><text fill="#000000" font-family="sans-serif" font-size="13" lengthAdjust="spacing" textLength="143.0762" x="237.1372" y="190.0903">state = IN_PROGRESS</text></g><path d="M10,223.1563 L81.7588,223.1563 L81.7588,227.9609 L71.7588,237.9609 L10,237.9609 L10,223.1563" fill="#EEEEEE" style="stroke:#000000;stroke-width:1.5;"/><rect fill="none" height="102.2031" style="stroke:#000000;stroke-width:1.5;" width="532.7461" x="10" y="223.1563"/><text fill="#000000" font-family="sans-serif" font-size="11" font-weight="bold" lengthAdjust="spacing" textLength="26.7588" x="25" y="234.3667">loop</text><text fill="#000000" font-family="sans-serif" font-size="11" font-weight="bold" lengthAdjust="spacing" textLength="76.769" x="96.7588" y="235.3667">[each move]</text><g class="message" data-entity-1="part1" data-entity-2="part2" id="msg3"><polygon fill="#181818" points="208.1372,255.0938,218.1372,259.0938,208.1372,263.0938,212.1372,259.0938" style="stroke:#181818;stroke-width:1;"/><line style="stroke:#181818;stroke-width:1;" x1="71.4565" x2="214.1372" y1="259.0938" y2="259.0938"/><text fill="#000000" font-family="sans-serif" font-size="13" lengthAdjust="spacing" textLength="123.354" x="84.1199" y="254.0278">recordMove(move)</text></g><g class="message" data-entity-1="part2" data-entity-2="part3" id="msg4"><polygon fill="#181818" points="422.1948,284.2266,432.1948,288.2266,422.1948,292.2266,426.1948,288.2266" style="stroke:#181818;stroke-width:1;"/><line style="stroke:#181818;stroke-width:1;" x1="230.1372" x2="428.1948" y1="288.2266" y2="288.2266"/><text fill="#000000" font-family="sans-serif" font-size="13" lengthAdjust="spacing" textLength="75.5181" x="294.407" y="283.1606">isOver(this)</text></g><g class="message" data-entity-1="part3" data-entity-2="part2" id="msg5"><polygon fill="#181818" points="241.1372,313.3594,231.1372,317.3594,241.1372,321.3594,237.1372,317.3594" style="stroke:#181818;stroke-width:1;"/><line style="stroke:#181818;stroke-width:1;stroke-dasharray:2,2;" x1="235.1372" x2="438.1948" y1="317.3594" y2="317.3594"/><text fill="#000000" font-family="sans-serif" font-size="13" lengthAdjust="spacing" textLength="70.77" x="299.281" y="312.2935">NOT_OVER</text></g><path d="M21,337.3594 L21,362.3594 L275,362.3594 L275,347.3594 L265,337.3594 L21,337.3594" fill="#FEFFDD" style="stroke:#181818;stroke-width:0.5;"/><path d="M265,337.3594 L265,347.3594 L275,347.3594 L265,337.3594" fill="#FEFFDD" style="stroke:#181818;stroke-width:0.5;"/><text fill="#000000" font-family="sans-serif" font-size="13" lengthAdjust="spacing" textLength="117.9966" x="84.5952" y="354.4263">White plays Qh5#</text><g class="message" data-entity-1="part1" data-entity-2="part2" id="msg6"><polygon fill="#181818" points="208.1372,384.625,218.1372,388.625,208.1372,392.625,212.1372,388.625" style="stroke:#181818;stroke-width:1;"/><line style="stroke:#181818;stroke-width:1;" x1="71.4565" x2="214.1372" y1="388.625" y2="388.625"/><text fill="#000000" font-family="sans-serif" font-size="13" lengthAdjust="spacing" textLength="124.6807" x="83.4565" y="383.5591">recordMove(Qh5#)</text></g><g class="message" data-entity-1="part2" data-entity-2="part3" id="msg7"><polygon fill="#181818" points="422.1948,413.7578,432.1948,417.7578,422.1948,421.7578,426.1948,417.7578" style="stroke:#181818;stroke-width:1;"/><line style="stroke:#181818;stroke-width:1;" x1="230.1372" x2="428.1948" y1="417.7578" y2="417.7578"/><text fill="#000000" font-family="sans-serif" font-size="13" lengthAdjust="spacing" textLength="75.5181" x="294.407" y="412.6919">isOver(this)</text></g><g class="message" data-entity-1="part3" data-entity-2="part2" id="msg8"><polygon fill="#181818" points="241.1372,442.8906,231.1372,446.8906,241.1372,450.8906,237.1372,446.8906" style="stroke:#181818;stroke-width:1;"/><line style="stroke:#181818;stroke-width:1;stroke-dasharray:2,2;" x1="235.1372" x2="438.1948" y1="446.8906" y2="446.8906"/><text fill="#000000" font-family="sans-serif" font-size="13" lengthAdjust="spacing" textLength="80.9326" x="294.1997" y="441.8247">CHECKMATE</text></g><g class="message" data-entity-1="part2" data-entity-2="part2" id="msg9"><line style="stroke:#181818;stroke-width:1;" x1="230.1372" x2="272.1372" y1="491.1563" y2="491.1563"/><line style="stroke:#181818;stroke-width:1;" x1="272.1372" x2="272.1372" y1="491.1563" y2="504.1563"/><line style="stroke:#181818;stroke-width:1;" x1="231.1372" x2="272.1372" y1="504.1563" y2="504.1563"/><polygon fill="#181818" points="241.1372,500.1563,231.1372,504.1563,241.1372,508.1563,237.1372,504.1563" style="stroke:#181818;stroke-width:1;"/><text fill="#000000" font-family="sans-serif" font-size="13" lengthAdjust="spacing" textLength="113.2104" x="237.1372" y="470.9575">state = FINISHED</text><text fill="#000000" font-family="sans-serif" font-size="13" lengthAdjust="spacing" textLength="67.4185" x="260.0332" y="486.0903">&#171;decided&#187;</text></g><path d="M235,517.1563 L235,542.1563 L753,542.1563 L753,527.1563 L743,517.1563 L235,517.1563" fill="#FEFFDD" style="stroke:#181818;stroke-width:0.5;"/><path d="M743,517.1563 L743,527.1563 L753,527.1563 L743,517.1563" fill="#FEFFDD" style="stroke:#181818;stroke-width:0.5;"/><text fill="#000000" font-family="sans-serif" font-size="13" lengthAdjust="spacing" textLength="497.1929" x="241" y="534.2231">TerminationRule answers\n"is it over, and which kind?"\nNEVER "who won?"</text><g class="message" data-entity-1="part2" data-entity-2="part4" id="msg10"><polygon fill="#181818" points="608.8862,564.4219,618.8862,568.4219,608.8862,572.4219,612.8862,568.4219" style="stroke:#181818;stroke-width:1;"/><line style="stroke:#181818;stroke-width:1;" x1="230.1372" x2="614.8862" y1="568.4219" y2="568.4219"/><text fill="#000000" font-family="sans-serif" font-size="13" lengthAdjust="spacing" textLength="106.5835" x="372.22" y="563.356">buildResult(this)</text></g><g class="message" data-entity-1="part4" data-entity-2="part4" id="msg11"><line style="stroke:#181818;stroke-width:1;" x1="630.8862" x2="672.8862" y1="597.5547" y2="597.5547"/><line style="stroke:#181818;stroke-width:1;" x1="672.8862" x2="672.8862" y1="597.5547" y2="610.5547"/><line style="stroke:#181818;stroke-width:1;" x1="631.8862" x2="672.8862" y1="610.5547" y2="610.5547"/><polygon fill="#181818" points="641.8862,606.5547,631.8862,610.5547,641.8862,614.5547,637.8862,610.5547" style="stroke:#181818;stroke-width:1;"/><text fill="#000000" font-family="sans-serif" font-size="13" lengthAdjust="spacing" textLength="241.0776" x="637.8862" y="592.4888">read TerminationKind = CHECKMATE</text></g><g class="message" data-entity-1="part4" data-entity-2="part4" id="msg12"><line style="stroke:#181818;stroke-width:1;" x1="630.8862" x2="672.8862" y1="654.8203" y2="654.8203"/><line style="stroke:#181818;stroke-width:1;" x1="672.8862" x2="672.8862" y1="654.8203" y2="667.8203"/><line style="stroke:#181818;stroke-width:1;" x1="631.8862" x2="672.8862" y1="667.8203" y2="667.8203"/><polygon fill="#181818" points="641.8862,663.8203,631.8862,667.8203,641.8862,671.8203,637.8862,667.8203" style="stroke:#181818;stroke-width:1;"/><text fill="#000000" font-family="sans-serif" font-size="13" lengthAdjust="spacing" textLength="223.1392" x="637.8862" y="634.6216">winner = side that delivered mate</text><text fill="#000000" font-family="sans-serif" font-size="13" lengthAdjust="spacing" textLength="85.7886" x="725.157" y="649.7544">(White, here)</text></g><g class="message" data-entity-1="part4" data-entity-2="part5" id="msg13"><polygon fill="#181818" points="888.9639,692.9531,898.9639,696.9531,888.9639,700.9531,892.9639,696.9531" style="stroke:#181818;stroke-width:1;"/><line style="stroke:#181818;stroke-width:1;" x1="630.8862" x2="894.9639" y1="696.9531" y2="696.9531"/><text fill="#000000" font-family="sans-serif" font-size="13" lengthAdjust="spacing" textLength="139.0898" x="696.3801" y="691.8872">status = COMPLETED</text></g><g class="message" data-entity-1="part4" data-entity-2="part5" id="msg14"><polygon fill="#181818" points="888.9639,722.0859,898.9639,726.0859,888.9639,730.0859,892.9639,726.0859" style="stroke:#181818;stroke-width:1;"/><line style="stroke:#181818;stroke-width:1;" x1="630.8862" x2="894.9639" y1="726.0859" y2="726.0859"/><text fill="#000000" font-family="sans-serif" font-size="13" lengthAdjust="spacing" textLength="139.3311" x="696.2595" y="721.02">outcomeValue = WIN</text></g><g class="message" data-entity-1="part4" data-entity-2="part6" id="msg15"><polygon fill="#181818" points="1040.9902,751.2188,1050.9902,755.2188,1040.9902,759.2188,1044.9902,755.2188" style="stroke:#181818;stroke-width:1;"/><line style="stroke:#181818;stroke-width:1;" x1="630.8862" x2="1046.9902" y1="755.2188" y2="755.2188"/><text fill="#000000" font-family="sans-serif" font-size="13" lengthAdjust="spacing" textLength="139.0898" x="772.3933" y="750.1528">status = COMPLETED</text></g><g class="message" data-entity-1="part4" data-entity-2="part6" id="msg16"><polygon fill="#181818" points="1040.9902,780.3516,1050.9902,784.3516,1040.9902,788.3516,1044.9902,784.3516" style="stroke:#181818;stroke-width:1;"/><line style="stroke:#181818;stroke-width:1;" x1="630.8862" x2="1046.9902" y1="784.3516" y2="784.3516"/><text fill="#000000" font-family="sans-serif" font-size="13" lengthAdjust="spacing" textLength="146.8975" x="768.4895" y="779.2856">outcomeValue = LOSS</text></g><g class="message" data-entity-1="part4" data-entity-2="part7" id="msg17"><polygon fill="#181818" points="1142.0034,809.4844,1152.0034,813.4844,1142.0034,817.4844,1146.0034,813.4844" style="stroke:#181818;stroke-width:1;"/><line style="stroke:#181818;stroke-width:1;" x1="630.8862" x2="1148.0034" y1="813.4844" y2="813.4844"/><text fill="#000000" font-family="sans-serif" font-size="13" lengthAdjust="spacing" textLength="86.436" x="849.2268" y="808.4185">create Result</text></g><rect fill="#E2E2F0" height="30.2969" rx="2.5" ry="2.5" style="stroke:#181818;stroke-width:0.5;" width="57.8867" x="1154.0034" y="792.3516"/><text fill="#000000" font-family="sans-serif" font-size="14" lengthAdjust="spacing" textLength="43.8867" x="1161.0034" y="812.3467">Result</text><g class="message" data-entity-1="part4" data-entity-2="part7" id="msg19"><polygon fill="#181818" points="1170.9468,850.7813,1180.9468,854.7813,1170.9468,858.7813,1174.9468,854.7813" style="stroke:#181818;stroke-width:1;"/><line style="stroke:#181818;stroke-width:1;" x1="630.8862" x2="1176.9468" y1="854.7813" y2="854.7813"/><text fill="#000000" font-family="sans-serif" font-size="13" lengthAdjust="spacing" textLength="259.4414" x="777.1958" y="849.7153">addRanking(PW, rank=1, token="won")</text></g><g class="message" data-entity-1="part4" data-entity-2="part7" id="msg20"><polygon fill="#181818" points="1170.9468,879.9141,1180.9468,883.9141,1170.9468,887.9141,1174.9468,883.9141" style="stroke:#181818;stroke-width:1;"/><line style="stroke:#181818;stroke-width:1;" x1="630.8862" x2="1176.9468" y1="883.9141" y2="883.9141"/><text fill="#000000" font-family="sans-serif" font-size="13" lengthAdjust="spacing" textLength="252.1162" x="780.8584" y="878.8481">addRanking(PB, rank=2, token="lost")</text></g><g class="message" data-entity-1="part4" data-entity-2="part2" id="msg21"><polygon fill="#181818" points="241.1372,909.0469,231.1372,913.0469,241.1372,917.0469,237.1372,913.0469" style="stroke:#181818;stroke-width:1;"/><line style="stroke:#181818;stroke-width:1;stroke-dasharray:2,2;" x1="235.1372" x2="624.8862" y1="913.0469" y2="913.0469"/><text fill="#000000" font-family="sans-serif" font-size="13" lengthAdjust="spacing" textLength="40.752" x="407.6357" y="907.981">Result</text></g><g class="message" data-entity-1="part2" data-entity-2="part2" id="msg22"><line style="stroke:#181818;stroke-width:1;" x1="230.1372" x2="272.1372" y1="962.3125" y2="962.3125"/><line style="stroke:#181818;stroke-width:1;" x1="272.1372" x2="272.1372" y1="962.3125" y2="975.3125"/><line style="stroke:#181818;stroke-width:1;" x1="225.1372" x2="272.1372" y1="975.3125" y2="975.3125"/><polygon fill="#181818" points="235.1372,971.3125,225.1372,975.3125,235.1372,979.3125,231.1372,975.3125" style="stroke:#181818;stroke-width:1;"/><text fill="#000000" font-family="sans-serif" font-size="13" lengthAdjust="spacing" textLength="86.3979" x="283.967" y="942.1138">attach Result</text><text fill="#000000" font-family="sans-serif" font-size="13" lengthAdjust="spacing" textLength="180.0576" x="237.1372" y="957.2466">(immutable from this point)</text></g><path d="M176,983.3125 L176,1053.3125 L1231,1053.3125 L1231,993.3125 L1221,983.3125 L176,983.3125" fill="#FEFFDD" style="stroke:#181818;stroke-width:0.5;"/><path d="M1221,983.3125 L1221,993.3125 L1231,993.3125 L1221,983.3125" fill="#FEFFDD" style="stroke:#181818;stroke-width:0.5;"/><text fill="#000000" font-family="sans-serif" font-size="13" lengthAdjust="spacing" textLength="308.9722" x="493.3406" y="1000.3794">Result exists if and only if Contest is decided.\n</text><text fill="#000000" font-family="sans-serif" font-size="13" lengthAdjust="spacing" textLength="384.5728" x="493.3406" y="1015.5122">An adjournment instead sends Contest to SUSPENDED &#8212;\n</text><text fill="#000000" font-family="sans-serif" font-size="13" lengthAdjust="spacing" textLength="412.0835" x="493.3406" y="1030.645">no Result is produced; on resume it returns to IN_PROGRESS.\n</text><text fill="#000000" font-family="sans-serif" font-size="13" lengthAdjust="spacing" textLength="412.1216" x="493.3406" y="1045.7778">SUSPENDED is a pause, not a reversal of the finished invariant.</text><?plantuml-src VLNDSjj63BxpAJ3AHSeecIWplRYnCnP5nvx4eagfqQ7APDOaB6vCOjdTfHJtr8VeM_GHUikZz4c29IbwvVpen5ry03vy2q3cJb8bj2Z1u9yrKehNQ8pOudaXjmGfaaKTc1wbqLIAp04rnKBjpxLMUx2wHW-uxCAzqQgkBb5ag2yKsQNy2s4oyO2DzogNwHrnJF1D2w6jJ6Kbo2v4badQmiiNddsgFX_k9o-2m4fR85mm8vZ0_t__0s7k8fR2fla9S1sb966b8h0v4gZQfgh43Gtv27Ql86M2MgJMWB7YdXLnQIm2xXY-RtoeFLaGPFQe3Tmecu-2WBsKXlOtQFEQUsEn781eFeFgeHX6S2OqTj1vE4nuZ5YrT0j6PjAHRWAj4e1NhrOFfIHrWMTdnwupJ0kXCUkZD_7ZnZLkY_wUMw-sYxkXFzQvjFYXIRjO_nmwBKHwrq6dnz04JLrOZqf39Wa2rWIUdK489qvjROSZ9wBSES738FHiV74AL_EFYoH-aqJBPH0KIbM08isXL3iC0BnW6bEbisk-7phZYArDC2VT2KWJxr3pYqlZB7t6LS8dXZpheipZrSVuVUHkC_HHI5aGaE831zSkyPZf0ZHgGLK8Pl9R_iiJ1mI7EwhK8-T0e-10xH4pFwF7AhoCmhVNvwieE2RrhLmNL_EhvMKqsz2NVpDCPORPb_ywubfkSmlgjk7zg9SEVRsXWJGWRLFbc6yp7W39WlFmPQy76vf7h0uCzhc2lQBN0w_UXapiQhgfPP6r7V2ui9XPC-Q0rBmXV2vlEGsNyL2mXzrB8fR-50oNnRCiBBzH8PaePcxQUQJxNXisxpA6d8sZGyR5kbEgDYv7VBru5wsYcM_jbiDxKTHEplNLl7UU_jHv-gtpkzZrR6jFuEbJHgHSBulGIjERJe2tMIA8DTuE5-inQFu-dOp1gZkaqm4BFHZz03tjq2zxTA5umNGrTztHvVEQ9_QRHrZhPgf5yLwKPLbRSSDTSQjL2Uu5eLAIxCWF4Vhp48x1pKmR0l2pDBnDvMtJG8gAU_VTBJ_kUEXQy_c6sEcSkA9FgjPKkWqhYVSdTuNXpZAzarMm_7svYEQpQEQMVED9wf3HCTGggrFCVkM4xl-gBj4riaRBaOqBuEsIDlD3HFONK8dQSCzmLNpGlE-r4OKR6FT7SIj9cfmxJT9EQCbBxddV-ry1?></g></svg>